<svg xmlns="http://www.w3.org/2000/svg" xmlns:xlink="http://www.w3.org/1999/xlink"><symbol id="basket"><path d="M19.227 7.238h-3.382L12.56.402C12.367 0 11.98-.1 11.594.101c-.386.2-.483.603-.29 1.005L14.3 7.238H5.508l2.995-6.132c.194-.402 0-.804-.29-1.005-.386-.202-.772 0-.966.301L3.961 7.238H.773A.777.777 0 0 0 0 8.042c0 .402.29.805.773.805h.193l.87 3.015c-.193.101-.29.302-.29.604 0 .402.29.703.676.703L3.865 19h12.27l1.643-5.83c.386 0 .676-.302.676-.704 0-.201-.096-.503-.29-.604l.87-3.015h.193A.777.777 0 0 0 20 8.042a.777.777 0 0 0-.773-.804ZM14.88 17.392H4.831l-1.16-4.323h12.464L14.88 17.39Zm1.546-5.831H3.188l-.773-2.815h14.783l-.773 2.815Z"/></symbol><symbol id="cart"><path opacity=".2" d="M20.188 6.857h-3.55L13.188.381C12.985 0 12.58-.095 12.174.095s-.507.572-.304.953l3.145 5.81H5.783l3.145-5.81c.202-.381 0-.762-.305-.953-.406-.19-.811 0-1.014.286l-3.45 6.476H.812c-.406 0-.812.286-.812.762 0 .381.304.762.812.762h.202l.914 2.857c-.203.095-.305.286-.305.572 0 .38.305.666.71.666L4.058 18h12.884l1.725-5.524c.405 0 .71-.286.71-.667 0-.19-.102-.476-.304-.57l.912-2.858h.203c.406 0 .812-.286.812-.762 0-.476-.406-.762-.812-.762Zm-4.565 9.62H5.073L3.854 12.38h13.087l-1.319 4.095Zm1.623-5.525H3.348l-.812-2.666h15.522l-.812 2.666Z"/></symbol><symbol id="checkbox"><path d="M1 1h36v36H1z"/></symbol><symbol id="checked"><path d="M1 1h36v36H1z"/><path stroke="#000" d="m30.963 12.684-.994-.992-14.204 14.094-7.03-7.011-.994.991 7.03 7.012.994.991 1.066-.991 14.132-14.094Z"/></symbol><symbol id="cloud"><path d="M57.128 9.152c-13.096-12.203-34.211-12.203-47.306 0-13.096 12.202-13.096 31.944 0 44.147 0 0 23.653 21.627 23.653 46.627 0-25 23.653-46.627 23.653-46.627 13.095-12.104 13.095-31.945 0-44.147Z" fill="#fff"/><path d="M47.687 45.164c-.609-3.274.102-6.845 0-10.218-.101-3.77-.71-7.44-.71-11.111 0-2.977.507-6.151-.508-9.028.101-.298.101-.695.203-.992.305-1.488-4.67-.695-5.38.595-.508.397-.711.893-.508 1.29.102.099.102.198.102.397-.914 4.464-2.234 8.73-3.757 13.095a257.52 257.52 0 0 1-1.827 4.86 67.034 67.034 0 0 1-2.335-4.662c-1.928-4.762-3.756-9.623-6.09-14.186.304-2.084-4.569-1.885-5.482 0-1.117 2.38-1.015 4.762-.61 7.242.407 2.877.508 5.654.508 8.531.102 5.556.508 11.012.61 16.568-.508.595-.61 1.19-.102 1.885.203.297.507.496.812.794 1.32.992 4.974.198 4.974-1.786 0-5.754-.406-11.409-.609-17.163V29.59c.101.198.203.396.203.595.914 2.182 1.827 4.365 3.147 6.448 1.218 2.084 1.827 4.266 2.538 6.449-.305.297-.406.595-.305.992-.101.297.102.397.406.496.914.793 2.64.397 3.553 0l1.219-.596c.507-.297 1.218-.992 1.015-1.587 0-.099-.102-.297-.102-.397.71-1.785 1.015-3.571 1.422-5.456.406-1.984 1.116-3.869 1.827-5.754.101.893.101 1.687.203 2.58.304 3.57 0 7.043 0 10.614 0 1.191.101 2.282.304 3.374.102.496.508 2.48.406 2.579-.913.794-.609 1.786.508 1.984 1.32.298 2.944-.1 3.959-.992 1.624-1.389.812-3.77.406-5.754Z" fill="#6BC6B3"/></symbol><symbol id="flag"><path d="M7.766 3.862v38.52L47 23.071 7.766 3.862ZM0 80.9V0h3.833v80.9H0Z" fill="#63D1BB"/><path d="M3.833.1H0V81h3.833V.1Z" fill="#231F20"/></symbol><symbol id="htmlacademy-footer"><path d="M13.6 0h-.1L0 1.4v24.7l13.5 8 13.4-8V1.4L13.6 0ZM25 12.1 13.5 5.3v-.1h-.1l-.1-.1v.1L1.9 12.1v-9l11.5-1.2L25 3.1v9ZM13.4 6.8l11.5 6.7-4.5 2.6-7.1-4.2v1.4l5.9 3.5-.9.5-5-3v1.4l3.8 2.3-.8.5-3-1.8v1.4l1.9 1.1-1.8 1.1L2 13.6l11.4-6.8ZM1.9 15.1l11.4 6.8v1l-7.9-4.7v1.4l8 4.8v1.1l-8-4.7v1.4l8 4.8 8.1-4.9v-5.2l3.4-2v10l-11.5 6.9L1.9 25v-9.9Z" fill="#63D1BB"/></symbol><symbol id="htmlacademy" viewBox="0 0 60 60"><path fill="#2E368F" d="M30.2 5H30L10.3 7.1v36.2L30 55l19.7-11.7V7.1L30.2 5zm17 36.8L30 52 12.8 41.8V27l17.1 10.2V39l-11.7-7v1.8L30 40.9v1.9l-11.8-7v1.8l11.8 7 11.9-7.1v-7.6l5.3-3.2v15.1zm-.1-17-4.7 2.8-2.2 1.3-10.3-6.1v1.8l8.8 5.3h-.1l-.2.1-1.3.7-7.3-4.3v1.8l5.8 3.4-1.4.9-4.3-2.6v1.8l2.9 1.7-2.9 1.7-17-10.1 17-10.2 17.2 10zm.1-1.8L29.9 12.8 12.8 23V9.4L30 7.6l17.2 1.8V23z"/></symbol><symbol id="left-arrow"><path d="M50 11H7.7l8.1-8.2L13 0 0 13l13 13 2.8-2.8L7.7 15H50v-4Z"/></symbol><symbol id="letter-m"><path d="M27.687 32.164c-.609-3.274.102-6.845 0-10.218-.101-3.77-.71-7.44-.71-11.111 0-2.977.507-6.151-.508-9.028.101-.298.101-.695.203-.992.305-1.488-4.67-.695-5.38.595-.508.397-.711.893-.508 1.29.102.099.102.198.102.397-.914 4.464-2.234 8.73-3.756 13.095a257.52 257.52 0 0 1-1.828 4.86 67.034 67.034 0 0 1-2.335-4.662c-1.928-4.762-3.756-9.623-6.09-14.186.304-2.084-4.569-1.885-5.482 0C.278 4.584.38 6.966.785 9.446c.407 2.877.508 5.655.508 8.531.102 5.556.508 11.012.61 16.568-.508.595-.61 1.19-.102 1.885.203.297.507.496.812.794 1.32.992 4.974.198 4.974-1.786 0-5.754-.406-11.409-.609-17.163V16.59c.102.198.203.396.203.595.914 2.182 1.827 4.365 3.147 6.448 1.218 2.084 1.827 4.266 2.538 6.449-.305.297-.406.595-.305.992-.101.297.102.397.406.496.914.793 2.64.397 3.553 0l1.219-.595c.507-.298 1.218-.992 1.015-1.588 0-.099-.102-.297-.102-.397.71-1.785 1.015-3.571 1.421-5.456.407-1.984 1.117-3.869 1.828-5.754.101.893.101 1.687.203 2.58.304 3.57 0 7.043 0 10.614 0 1.191.101 2.282.304 3.374.102.496.508 2.48.406 2.579-.913.794-.609 1.786.508 1.984 1.32.298 2.944-.1 3.959-.992 1.624-1.389.812-3.77.406-5.754Z" fill="#6BC6B3"/></symbol><symbol id="logo-background"><path d="M110.889 41.809c4.423.898.804-35.822.1-38.217-2.01-6.586-26.842-2.096-32.371-1.697-12.768.998-25.335-.997-37.801-.399-6.233.3-35.086-1.796-37.7 1.996C-1.91 10.676.402 29.236 1.81 38.516c-4.022.798 2.312 4.19 3.116 4.89 6.334 2.194 16.488-.2 23.123.398 15.482 1.497 31.97-2.195 47.553-.997 4.524 1.097 9.65.997 14.275 1.197 3.519 5.588 19.805-2.395 21.012-2.195.503.1-.101 0 0 0Z"/><path d="M26.24 24.348c-.101-2.495-.503-5.09-.503-7.584 0-2.095.402-4.19-.302-6.186 0-.2.1-.4.1-.699.202-.998-3.116-.499-3.619.4-.301.299-.502.598-.402.897 0 .1.1.2.1.2-.602 2.993-1.507 5.987-2.512 8.88-.402 1.098-.805 2.196-1.207 3.393-.603-.998-1.106-2.095-1.608-3.193-1.307-3.293-2.514-6.586-4.122-9.679.2-1.497-3.016-1.297-3.72 0-.804 1.597-.704 3.193-.402 4.89.301 1.895.301 3.791.402 5.787 0 3.792.302 7.484.402 11.275-.301.4-.402.799-.1 1.297.2.2.301.4.502.5.905.698 3.318.1 3.318-1.198 0-3.892-.302-7.783-.402-11.675v-1.097c.1.1.1.3.2.399.604 1.497 1.207 2.993 2.112 4.39.804 1.397 1.206 2.894 1.71 4.39-.202.2-.303.4-.202.7 0 .199.1.299.201.299.603.499 1.71.299 2.413 0a3 3 0 0 0 .804-.4c.302-.199.805-.598.704-1.097 0-.1-.1-.2-.1-.3.401-1.197.703-2.494.904-3.691.302-1.397.704-2.595 1.207-3.892 0 .599.1 1.197.1 1.796.201 2.395 0 4.79 0 7.184 0 .799.1 1.497.201 2.296.1.299.302 1.696.302 1.796-.603.499-.402 1.197.402 1.397.905.2 2.01-.1 2.614-.699 1.106-.998.603-2.694.301-3.991-.301-1.996.302-4.49.201-6.785Zm7.942.698c-.1-1.896-.704-3.692-.704-5.588 0-2.195.201-4.39-.1-6.486-.101-.698-3.82.1-3.72.998.301 1.996.2 3.991.2 5.987 0 1.896.403 3.692.704 5.588.302 1.996-.1 3.891.101 5.887.1.898.704 2.595.1 3.393-.402.499 1.408.3 1.509.3.703-.1 1.709-.4 2.211-.999.604-.798.201-2.295.1-3.193-.502-1.896-.3-3.991-.401-5.887Zm15.582-3.193c-2.01-2.594-5.63-.699-8.143-1.497-1.307-.399-1.307-2.195-1.307-3.193 0-1.397-.1-2.594-.301-3.891-.1-.998 0-1.996.703-2.794.1-.1.805-.3.805-.3.301-.1.603-.1 1.005-.1 1.508-.1 4.423.2 3.82 2.395-.301.998 3.418.4 3.72-.598 1.206-4.39-6.937-3.493-9.25-2.894-2.11.599-4.423 1.796-4.523 4.19-.1 1.198.301 2.296.301 3.393.101 1.298-.2 2.595.302 3.892 1.005 2.794 5.228 1.497 7.44 1.696 3.619.3 2.614 5.189 2.614 7.484 0 1.197 1.105 3.293.2 4.29-.603.6-1.91.7-2.613.7-.805.099-2.112.299-2.614-.4-.905-1.297.1-3.592-.1-5.089-.101-.898-3.922-.1-3.72.998.301 2.494-1.308 5.787 2.312 6.286 2.312.3 4.926-.2 7.138-.898 1.105-.399 2.211-.898 3.116-1.696 1.006-.898.704-2.195.402-3.393-.804-2.993.503-6.186-1.307-8.581Zm16.589-.2c-.101-3.592-.704-7.084-.704-10.676 0-1.896-3.82-1.198-3.82.299 0 3.393.502 6.785.603 10.178v.2c-1.81 0-3.72.199-5.63.199.2-4.39-.603-8.78-.402-13.072 0-.598-3.72-.1-3.72.998-.201 4.191.603 8.482.402 12.673-.1 1.995-.201 3.991-.201 6.086 0 .998.201 2.096.302 3.094.1.898.502 2.195.2 3.093-.2.698 3.419.3 3.72-.699.503-1.696-.2-3.791-.402-5.488-.2-1.596 0-3.292.1-4.989 1.91-.1 3.922-.3 5.832 0l.301 3.892c.1 1.097.201 2.195.201 3.293 0 .997.1 2.395-.2 3.292-.704 1.996 3.015 1.797 3.518.3.704-1.796.503-3.992.402-5.788-.1-2.195-.502-4.59-.502-6.885Zm16.085 4.291c-.905-2.594-2.312-4.89-3.418-7.384a145.398 145.398 0 0 0 2.815-5.588c.804-1.696 1.407-3.592 2.915-4.79.503-.398.503-.798-.2-.897-.805-.1-2.012.2-2.615.698-1.407 1.098-2.312 2.395-3.016 4.091-.905 1.896-1.81 3.892-2.815 5.788-.1.1-.1.299-.2.399-.504.3-.705.698-.604 1.197-.804 1.497-1.508 2.994-2.413 4.39-.302-5.288-.905-10.477-1.106-15.765 0-1.197-3.82-.499-3.72.998.202 6.486 1.207 12.971 1.207 19.457-.302.3-.201.5.1.6 0 1.695-.1 3.292-.2 4.988-.403.699.401 1.098 1.005 1.098h.1c.704 0 2.514-.3 2.614-1.297.201-1.996.201-3.992.201-5.987 1.508-1.597 2.715-3.393 3.82-5.289.704 1.397 1.408 2.794 1.91 4.29.805 2.595 2.212 4.99 3.017 7.584.502 1.697 4.222.699 3.72-.997-.905-2.595-2.212-4.99-3.117-7.584Zm22.419-4.39c-.201-.799-1.307-.799-2.212-.699v-.998c-.1-2.494-.201-5.089-.402-7.583-.201-2.295-1.508-3.193-3.82-3.093-2.313.1-5.027.498-7.138 1.297-2.513.998-3.92 2.794-4.323 5.388-.503 2.894.201 5.887.402 8.78.1 3.294.1 6.686.1 9.98 0 .498 3.72 0 3.72-.999v-7.883c0-.798 0-1.496-.1-2.294 1.307-.6 3.519 0 4.825.1 1.106.1 2.112-.2 3.117-.3 0 2.195.1 4.39.201 6.586 0 1.097.503 3.392-.302 4.29-.402.5 1.408.3 1.508.3.805-.1 1.71-.4 2.212-.998.905-1.098.402-3.592.402-4.89-.1-1.796-.1-3.592-.1-5.388.905-.1 2.111-.798 1.91-1.596Zm-13.874-.2-.301-3.592c-.201-2.195.1-5.289 2.212-6.586.603-.399 1.608-.3 2.211-.399.905-.2 1.91-.4 2.715.2 1.106.798.904 3.492.904 4.59 0 1.895.201 3.791.302 5.687-.503.1-1.106.1-1.608.1-2.212-.1-4.424-.4-6.435 0ZM30.965 10.378c.502 0 1.005-.2 1.407-.499.1-.1.201-.1.201-.2.503-.299.905-.798.704-1.297-.503-.998-.402-2.095-.402-3.193 0-.898-.905-1.197-1.71-1.097-.703.1-2.11.598-2.11 1.397 0 .898-.101 1.895.1 2.793 0 .1-.1.2-.1.3-.101.2 0 .399.1.599v.399c.1.2.201.399.402.499.503.299 1.006.299 1.408.299Z" fill="#fff"/></symbol><symbol id="logo-footer"><path d="M19.22 21.381c-.1-2.685-.5-5.27-.5-7.956 0-2.187.4-4.375-.4-6.464 0-.199.1-.497.1-.696.2-.994-3.3-.497-3.8.497-.3.299-.5.597-.4.995 0 .1.1.199.1.298-.7 3.183-1.6 6.265-2.6 9.348-.4 1.194-.9 2.288-1.3 3.481-.6-1.094-1.2-2.188-1.6-3.381-1.4-3.381-2.6-6.862-4.3-10.144.2-1.492-3.2-1.392-3.9 0-.8 1.69-.7 3.381-.4 5.171.3 1.99.4 3.978.4 6.067 0 3.978.4 7.856.4 11.834-.4.398-.5.895-.1 1.392.2.2.4.398.6.498 1 .696 3.6.099 3.6-1.293 0-4.078-.3-8.155-.4-12.332v-1.193c.1.1.1.298.2.398.6 1.59 1.3 3.182 2.2 4.674.9 1.491 1.3 3.082 1.8 4.674-.2.199-.3.497-.2.696 0 .199.1.298.3.398.6.497 1.8.298 2.5 0 .3-.1.6-.299.8-.398.3-.2.9-.696.7-1.194 0-.099-.1-.198-.1-.298.5-1.293.7-2.585 1-3.878.3-1.393.8-2.785 1.3-4.078.1.597.1 1.194.2 1.89.2 2.585 0 5.072 0 7.558 0 .795.1 1.591.2 2.486.1.298.4 1.79.3 1.89-.8.497-.6 1.093.2 1.292.9.2 2.1-.1 2.8-.696 1.2-1.094.6-2.784.4-4.177-.5-2.386 0-4.972-.1-7.359Zm8.4.697c-.1-1.99-.8-3.879-.8-5.868 0-2.287.2-4.574-.2-6.862-.1-.696-4.1.1-3.9.995.3 2.088.2 4.177.2 6.364 0 1.99.5 3.879.7 5.868.3 2.088-.1 4.177.1 6.166.1.994.8 2.685.1 3.58-.4.497 1.5.298 1.6.298.8-.1 1.8-.398 2.3-.994.7-.796.2-2.387.1-3.382-.3-1.989-.1-4.176-.2-6.165Zm16.3-3.282c-2.1-2.785-5.9-.796-8.6-1.492-1.4-.398-1.4-2.287-1.4-3.381 0-1.393-.1-2.685-.3-4.078-.1-1.094 0-2.088.7-2.884.1-.1.9-.298.8-.298.4-.1.7-.1 1.1-.1 1.5-.099 4.6.2 4 2.487-.3.994 3.6.398 3.9-.597 1.2-4.575-7.3-3.68-9.7-3.083-2.2.597-4.6 1.79-4.8 4.376-.1 1.193.3 2.387.3 3.58.1 1.392-.2 2.785.3 4.077 1.1 2.984 5.5 1.591 7.8 1.691 3.8.298 2.7 5.47 2.7 7.856 0 1.293 1.2 3.382.2 4.476-.6.696-2 .696-2.8.795-.8.1-2.2.298-2.7-.497-1-1.392.1-3.78-.1-5.37-.1-.895-4.1-.1-3.9.994.3 2.586-1.4 6.066 2.4 6.564 2.4.298 5.2-.2 7.5-.895 1.2-.398 2.3-.895 3.2-1.79 1-.895.7-2.288.4-3.481-.5-3.083.9-6.464-1-8.95Zm17.4-.199c-.1-3.78-.7-7.459-.7-11.238 0-1.989-4-1.293-4 .298 0 3.58.5 7.16.7 10.74v.2c-1.9 0-3.9.198-5.9.198.2-4.574-.6-9.149-.4-13.823 0-.596-3.9-.1-3.9.995-.2 4.475.6 8.85.5 13.326-.1 2.088-.2 4.276-.3 6.364 0 1.094.2 2.188.3 3.282.1.995.5 2.288.2 3.282-.2.796 3.6.298 3.9-.696.5-1.79-.2-3.978-.4-5.768-.2-1.69 0-3.48.1-5.171 2-.1 4.1-.299 6.1 0 .1 1.392.2 2.784.3 4.077.1 1.193.2 2.287.2 3.48 0 .995.1 2.487-.2 3.481-.8 2.089 3.1 1.89 3.7.398.7-1.89.5-4.177.4-6.166-.2-2.486-.6-4.873-.6-7.26Zm16.9 4.376c-.9-2.785-2.4-5.171-3.6-7.757 1-1.89 2-3.878 2.9-5.867.8-1.79 1.4-3.78 3.1-5.072.6-.398.6-.895-.3-.995-.9-.1-2.1.2-2.8.696-1.4 1.293-2.4 2.685-3.1 4.376-.9 2.089-1.9 4.077-2.9 6.066-.1.1-.1.299-.2.398-.5.299-.8.796-.6 1.293-.8 1.591-1.6 3.083-2.5 4.575-.3-5.47-1-11.04-1.2-16.509 0-1.293-4-.497-3.9.995.2 6.862 1.2 13.624 1.3 20.486v.1c-.3.298-.2.497.1.596 0 1.79-.1 3.48-.2 5.27-.5.697.5 1.095 1.1 1.095h.1c.7 0 2.6-.299 2.7-1.393.2-2.088.3-4.176.2-6.265 1.6-1.69 2.9-3.58 4.1-5.569.8 1.492 1.5 2.984 2 4.575.9 2.685 2.3 5.27 3.1 7.956.5 1.79 4.5.696 3.9-.995-1-2.784-2.4-5.27-3.3-8.055Zm23.501-4.575c-.2-.795-1.4-.795-2.3-.795v-.995c-.1-2.685-.2-5.37-.4-7.956-.2-2.486-1.6-3.281-4-3.182-2.4.1-5.2.497-7.5 1.392-2.6.995-4.1 2.884-4.6 5.669-.5 2.983.2 6.166.4 9.149.2 3.48.1 6.961.1 10.442 0 .597 3.9 0 3.9-.994v-8.255c0-.795-.1-1.59-.1-2.386 1.4-.597 3.7 0 5.1.1 1.1.099 2.2-.2 3.2-.3 0 2.288.1 4.575.2 6.863 0 1.193.5 3.48-.4 4.475-.4.497 1.5.298 1.6.298.8-.1 1.8-.398 2.3-.994.9-1.094.5-3.78.4-5.072-.1-1.89-.1-3.78-.1-5.669 1.1-.199 2.4-.895 2.2-1.79Zm-14.6-.1c-.1-1.192-.2-2.485-.3-3.679-.2-2.287.1-5.569 2.3-6.961.6-.398 1.7-.298 2.4-.398 1-.199 2-.398 2.8.199 1.2.796.9 3.68.9 4.873 0 1.989.2 3.978.3 5.967-.6.1-1.1.1-1.7.1-2.3-.2-4.6-.597-6.7-.1ZM24.22 6.663c.5-.1 1-.199 1.5-.497l.2-.2c.5-.297 1-.795.7-1.391-.5-1.094-.4-2.188-.4-3.382C26.22.2 25.22 0 24.42 0c-.7.1-2.2.597-2.2 1.492 0 .994-.1 1.989.1 2.983 0 .1-.1.199-.1.398-.1.199 0 .398.1.597v.397c.1.2.2.398.4.498.6.298 1.1.298 1.5.298Z"/></symbol><symbol id="menu-closed"><path d="M20 0H0v2h20V0Zm0 6H0v2h20V6Zm0 6H0v2h20v-2Z" fill="#231F20"/></symbol><symbol id="menu-opened"><path d="M21 1.366 19.566 0 10.55 8.585 1.434 0 0 1.366l9.015 8.683L0 18.634 1.434 20l9.117-8.585L19.566 20 21 18.634l-9.015-8.585L21 1.366Z"/></symbol><symbol id="mishka-logo-desktop"><path d="M144.16 31.105c-1.51 1.086-3.121 1.876-4.732 2.764 0-1.678-.1-3.455-.604-5.034.101-.296.101-.691.101-.987.403-2.962.705-7.009-2.013-9.082-.302-.296-1.208 0-1.913.296-.201-.197-.302-.296-.503-.395-.101-.197-.201-.493-.201-.69 0-.1-.202-.198-.403-.198.302-.395.302-.79-.403-1.086-.402-.197-.805-.296-1.107-.395-.101-.098-.101-.098-.201-.098-.906-.296-1.913-.494-2.92-.691.101-.296.403-.79.604-.988.101-.197.302-.296.403-.394l.201-.198s.101 0 .101-.098l.101-.1c.402-.295.805-.888.201-1.184-.604-.296-1.51-.099-2.013.198-.906.69-1.611 1.382-2.114 2.369-2.013-.198-4.027-.198-6.141-.099.101-.099.101-.197.101-.296.201-.592-.906-.494-1.208-.494-1.611.198-3.121.395-4.731.593 1.409-3.752 3.12-8.49 1.006-12.142-1.208-2.073-3.925-2.567-6.14-2.665-2.416-.1-4.933.493-7.047 1.58-4.831 2.566-7.147 7.6-8.254 12.93-.503-.69-2.315-.394-2.617.494-.1.296-.202.592-.302.987-.202.198-.302.395-.302.593v.197h-.202c0-.099 0-.198.101-.296.1-.099.201-.198.302-.395.604-2.27 1.208-4.54 1.913-6.713.302-.79-2.517-.394-2.819.395-.403 1.185-.805 2.37-1.107 3.554-.201.099-.403.197-.403.296v.099a.777.777 0 0 0-.503-.198v-.987c0-.395-2.819 0-2.819.79v1.58c-.201.098-.302.197-.503.296l-.201.197c-.101.099-.101.197-.101.197v.1l-.1.098c-.101.098-.202.296 0 .493.2.198.503.198.704.198h.1v.493h-.704l-.403-.098c0-.395-.704-.494-1.41-.296v-.1c-.1-.592-.2-1.184-.2-1.776.2-.099.503-.197.704-.296.202-.099.302-.198.302-.395v-.197c0-.198-.402-.198-.503-.198h-.604c-.1-1.283-.1-2.566-.1-3.85 0-.79-2.82-.296-2.82.79 0 1.777 0 3.554.202 5.232h-.302v-1.48c0-.988-1.309-1.185-2.114-.79.302-.297.503-.593.403-.988-.403-1.382-.806-2.764-1.007-4.244-.201-1.382-3.02-.691-2.819.79.202 1.48.605 2.862 1.007 4.244.201.79 1.309.888 2.114.494-.201.197-.403.493-.403.79v.591c-.302-.296-.503-.296-.906-.296-1.107 0-1.71.889-1.409 1.481-.201 0-.302-.099-.503-.099-.403-1.184-.705-2.467-.705-3.75 0-.89-1.308-.988-2.114-.692v-.197c-.402-.79-.604-1.678-.805-2.468-.302-1.283-3.221-.592-2.819.79.202.592.302 1.283.504 1.875h-.101c-.302.099-.604.198-.906.395-.805.099-1.812.592-1.812 1.185.1.493.1.987.201 1.382-.402.098-1.006.098-1.51.197a10.25 10.25 0 0 1-.603-2.37c-.101-.887-1.611-.887-2.316-.295-.805-2.073-1.812-3.949-3.12-5.726-2.718-3.356-7.248-4.54-11.375-3.652-1.913.395-3.725 1.185-5.034 2.567-1.208 1.382-1.409 3.06-1.208 4.738.202 1.48.604 3.948 1.611 5.923-.403 0-.705 0-.906.098-.302.099-.604.198-.805.395-1.913 0-3.926 0-5.839-.099-4.228-.197-8.355-.888-12.583-.69-.906 0-1.51.69-1.51 1.283a4.267 4.267 0 0 0-2.114 2.27c-1.711-1.086-3.523-2.27-5.335-3.159-.704-.394-3.322.691-2.315 1.185 1.812.888 3.624 2.073 5.335 3.159.503.296 1.309.098 1.812-.099 0 0 .1 0 .201-.099-.302 1.382-.201 3.06.202 4.442 0 .1.1.198.201.297v1.184c-.403.197-.705.494-.805.79a28.728 28.728 0 0 0-.302 4.146c-.302.197-.504.493-.504.79-.201 3.257 0 6.613.504 9.87.201 2.666.704 5.233 1.208 7.898.1.395.1.79.201 1.283-.302 1.086-.403 2.37-.201 3.455-.906.198-1.712.889-1.208 1.58.805 1.184 1.61 1.974 2.617 2.566-.604-.099-1.41.099-1.913.592-.805.79-1.711 1.481-2.516 2.27-.403.395-.302.89.302 1.087.704.197 1.51-.1 2.013-.494.805-.79 1.711-1.48 2.517-2.27.2-.198.302-.494.2-.691 3.222 1.678 7.249 1.283 11.175.888-.906 1.58-1.51 3.258-2.215 4.936-.302.69 2.517.394 2.819-.395.604-1.678 1.208-3.258 2.113-4.837 3.725.099 7.55.099 11.275.099.1.197.403.296.705.296 3.322.296 6.543-.099 9.764-.691 4.832-.198 9.664-.494 14.496-.79a876 876 0 0 1 22.75-.296l.302.296c.302.296.604.296 1.006.296h.202c.704 0 1.409.099 2.114.099.2 0 .302.099.604 0 .805.099 1.61.099 2.315.197.201.198.503.296.805.395 3.825.296 7.651.494 11.476.691.101.198.503.296.805.296 7.147.099 15.402 2.764 21.744-1.678.503-.395.302-.888-.302-.987h-.302c1.208-2.764 2.214-5.528 2.919-8.49.403-.197.604-.493.604-.888 0-1.184.201-2.369.403-3.553.201-.889.302-1.777.402-2.666.403-2.171.805-4.343 1.007-6.416 2.315-1.086 4.53-2.27 6.644-3.751 1.61-1.185-.806-1.876-1.812-1.185ZM88.392 16.298l-.1.099c.1-.296.1-.592.2-.888h.101c0 .197-.1.493-.201.79Z"/><path d="M63.729 12.547c.1.197.604.197.805.197.403 0 .806-.098 1.108-.197.402-.198 1.107-.593.805-1.086-.403-.592-.604-1.185-1.007-1.777-.1-.197-.604-.197-.805-.197a3.67 3.67 0 0 0-1.107.197c-.403.198-1.108.592-.806 1.086.302.592.604 1.283 1.007 1.777ZM20.846 10.87c.201.591 1.107.591 1.61.493.504-.1 1.41-.593 1.209-1.284-.202-.592-.403-1.283-.906-1.776-.504-.494-1.309-.395-1.913-.198-.403.198-1.208.79-.705 1.283.403.593.504.889.705 1.481Zm10.066 2.96c.806 0 3.121-1.283 1.208-1.283-.906 0-3.12 1.284-1.208 1.284Zm92.511-1.579c.302.099.705 0 1.107-.098.302-.1.705-.198.906-.494.403-.395.705-.691 1.007-1.185.101-.197.201-.395 0-.592-.201-.197-.503-.197-.805-.296-.403 0-.806.099-1.108.197a1.56 1.56 0 0 0-.805.593c-.101.197-.201.395-.403.493l-.201.198c-.201.197-.302.394-.302.592.101.395.302.493.604.592Zm13.388 5.331c.604-.1 1.409-.198 1.912-.691 1.309-1.086 2.618-2.172 3.624-3.554.302-.395-1.006-.197-1.107-.197-.503.098-1.309.296-1.711.69-.906 1.284-2.215 2.27-3.423 3.357-.503.395.403.395.705.395Zm10.872 26.751h-4.933c-.604 0-1.51.494-1.611 1.086-.1.691.806.889 1.309.889h4.933c.604 0 1.51-.494 1.61-1.086.101-.691-.704-.889-1.308-.889ZM57.387 60.127c-.503.098-1.409.296-1.61.79-.504 1.283-1.007 2.566-1.41 3.85-.2.69 2.618.296 2.82-.494.402-1.283.804-2.567 1.408-3.85.202-.494-1.006-.296-1.208-.296Zm4.631 2.567c-.302 0-.705.098-1.007.197-.302.099-.704.197-1.006.395-.101.099-.302.197-.302.395v.296c0 .099-.101.197-.101.296-.1.099-.1.197 0 .296.201.099.503.099.705.099.402 0 .704-.099 1.107-.296.201-.1.604-.198.805-.395.1-.198.202-.296.302-.494v-.493c0-.297-.402-.297-.503-.297Zm55.465 3.652c-.402-.691-3.019.296-2.818.79.805 1.579 1.912 3.06 2.919 4.639.403.69 3.02-.395 2.819-.79-1.007-1.58-2.114-3.06-2.92-4.64Zm4.027-2.369c-.302-.593-1.107-.593-1.611-.395-.402.099-1.509.592-1.207 1.184.402.79.805 1.58 1.207 2.27.302.593 1.108.593 1.611.396.403-.1 1.51-.593 1.208-1.185-.403-.69-.805-1.48-1.208-2.27ZM5.746 42.654c-1.51.395-3.02.593-4.53.987-.503.1-1.308.593-1.207 1.284.2.69 1.107.69 1.71.592 1.51-.395 3.02-.592 4.53-.987.504-.099 1.31-.691 1.209-1.283-.302-.691-1.208-.691-1.712-.593Z"/><path d="M44.1 39.692c-.101-2.665-.504-5.33-.504-7.996 0-2.171.403-4.442-.402-6.515 0-.197.1-.493.1-.69.202-1.087-3.322-.494-3.825.493-.302.296-.503.592-.403.987 0 .099.101.198.101.296-.705 3.159-1.61 6.318-2.617 9.378-.403 1.184-.906 2.37-1.309 3.554-.604-1.086-1.208-2.172-1.711-3.357-1.41-3.455-2.617-6.91-4.329-10.167.202-1.48-3.22-1.382-3.926 0-.805 1.678-.704 3.356-.402 5.232.302 2.073.402 4.047.402 6.12 0 3.948.403 7.897.403 11.846-.403.394-.503.888-.1 1.382l.603.592c.906.69 3.524.099 3.524-1.284 0-4.145-.302-8.193-.403-12.339V36.04c.1.099.1.296.201.395.604 1.58 1.309 3.158 2.215 4.64.906 1.48 1.308 3.06 1.812 4.639-.202.197-.302.493-.202.69 0 .198.101.297.302.395.604.593 1.913.297 2.517 0 .302-.098.604-.296.805-.394.302-.198.906-.691.705-1.185 0-.099-.1-.197-.1-.296.503-1.283.704-2.566 1.006-3.949.302-1.382.805-2.764 1.309-4.145.1.592.1 1.283.201 1.875.201 2.567 0 5.034 0 7.601 0 .888.1 1.58.201 2.468.101.296.403 1.777.302 1.875-.604.593-.402 1.284.403 1.382.906.198 2.114-.098 2.819-.69 1.208-1.087.604-2.863.402-4.245-.604-2.37-.1-5.035-.1-7.404Zm8.456.692c-.101-1.974-.806-3.85-.806-5.824 0-2.27.202-4.54-.201-6.811-.1-.691-4.127.098-4.027 1.085.302 2.073.202 4.245.202 6.318 0 2.073.503 3.85.704 5.923.302 2.073-.1 4.146.101 6.219.1.987.805 2.764.1 3.554-.402.493 1.51.296 1.611.296.806-.099 1.812-.395 2.316-.987.704-.79.2-2.37.1-3.357-.201-2.27 0-4.343-.1-6.416Zm16.609-3.356c-2.114-2.764-5.94-.79-8.657-1.58-1.41-.395-1.41-2.27-1.41-3.356 0-1.382-.1-2.764-.301-4.146-.101-1.086 0-2.073.805-2.863.1-.098.906-.296.805-.296.403-.099.705-.099 1.108-.099 1.61-.098 4.73.198 4.127 2.468-.302.987 3.624.395 3.926-.592 1.208-4.54-7.45-3.652-9.865-3.06-2.215.592-4.732 1.875-4.832 4.343-.101 1.185.302 2.37.302 3.554.1 1.382-.202 2.764.302 4.146 1.107 2.961 5.637 1.58 7.851 1.777 3.926.296 2.718 5.429 2.819 7.897 0 1.283 1.208 3.455.201 4.442-.604.69-2.013.69-2.818.79-.806.098-2.215.296-2.819-.494-1.007-1.382.1-3.751-.1-5.43-.202-.986-4.228-.098-4.027.988.302 2.665-1.41 6.12 2.416 6.614 2.517.296 5.234-.198 7.65-.889a10.758 10.758 0 0 0 3.322-1.777c1.007-.888.705-2.369.403-3.553-.705-2.962.705-6.318-1.208-8.884Zm17.616-.198c-.1-3.751-.705-7.502-.705-11.253 0-1.975-4.026-1.284-4.026.296 0 3.553.503 7.107.705 10.76v.197c-2.014 0-3.926.197-5.94.197.202-4.64-.604-9.18-.402-13.82 0-.592-3.926-.098-4.027 1.086-.201 4.442.604 8.885.504 13.327-.101 2.171-.202 4.244-.302 6.416 0 1.086.2 2.172.302 3.258.1.987.503 2.369.2 3.257-.2.79 3.625.296 3.927-.69.503-1.778-.202-4.048-.403-5.825-.201-1.678 0-3.455.1-5.232 2.014-.098 4.128-.296 6.141 0l.302 4.146c.1 1.185.202 2.27.202 3.455 0 .987.1 2.468-.202 3.455-.805 2.073 3.222 1.876 3.826.395.704-1.876.503-4.146.402-6.12-.201-2.37-.604-4.837-.604-7.305Zm17.113 4.541c-.906-2.764-2.416-5.133-3.624-7.798 1.007-1.974 2.013-3.85 3.02-5.824.805-1.777 1.51-3.85 3.121-5.035.604-.493.604-.888-.302-.987-.906-.099-2.114.198-2.819.691-1.51 1.185-2.416 2.567-3.221 4.245-1.007 2.073-1.913 4.047-3.02 6.021-.1.099-.202.297-.202.395-.503.296-.805.79-.603 1.283a105.68 105.68 0 0 1-2.517 4.64c-.302-5.528-1.007-11.056-1.208-16.584 0-1.283-4.027-.493-4.027 1.086.202 6.811 1.208 13.622 1.31 20.532v.1c-.303.295-.202.493.1.591 0 1.777-.1 3.455-.202 5.232-.503.79.504 1.086 1.108 1.086h.1c.705 0 2.618-.395 2.718-1.382.202-2.073.302-4.146.202-6.219 1.61-1.678 2.919-3.652 4.127-5.627.805 1.481 1.51 2.962 2.013 4.541.906 2.764 2.315 5.232 3.221 7.996.504 1.777 4.53.691 4.027-1.086-.906-2.665-2.315-5.232-3.322-7.897Zm23.958-4.639c-.201-.79-1.409-.889-2.315-.79v-.987c-.101-2.666-.201-5.33-.403-7.996-.201-2.468-1.61-3.356-4.026-3.258-2.416.1-5.335.494-7.651 1.382-2.617.988-4.127 2.962-4.63 5.627-.604 2.962.201 6.219.402 9.18.202 3.455.101 7.009.101 10.464 0 .592 4.027 0 4.027-1.086v-8.292c0-.79-.101-1.58-.101-2.468 1.409-.592 3.725 0 5.134.1 1.107.098 2.215-.198 3.322-.297 0 2.27.1 4.64.201 6.91 0 1.185.503 3.554-.403 4.54-.402.494 1.51.297 1.611.297.805-.099 1.812-.395 2.315-1.086 1.007-1.086.504-3.751.403-5.133-.101-1.876-.101-3.85-.101-5.725 1.007.197 2.316-.593 2.114-1.382Zm-14.898-.198c-.101-1.283-.201-2.468-.302-3.751-.201-2.37.101-5.528 2.315-7.009.604-.395 1.712-.296 2.416-.395 1.007-.197 2.014-.394 2.92.198 1.207.79.905 3.652.905 4.837 0 1.974.202 3.948.302 6.021-.604.1-1.107.1-1.711.1-2.315-.1-4.63-.396-6.845 0Zm-63.821-11.55c.503-.098 1.107-.197 1.51-.493.1-.099.201-.099.302-.198.503-.296 1.006-.79.704-1.382-.503-1.085-.402-2.27-.402-3.356 0-.987-1.007-1.283-1.812-1.184-.705.098-2.215.592-2.215 1.48 0 .987-.1 1.975.1 2.962 0 .098-.1.197-.1.395-.1.197 0 .394.1.592v.395c.102.197.202.395.404.493.402.296.906.296 1.409.296Z" fill="#fff"/></symbol><symbol id="mishka-logo-mobile"><path d="M4.547 26.319c0-3.5-.3-6.9-.4-10.4v-1c0 .1.1.2.1.4.5 1.4 1.1 2.7 1.8 3.9.7 1.2 1.1 2.6 1.5 3.9-.2.2-.3.4-.2.6 0 .2.1.2.2.3.5.5 1.5.2 2.1 0 .2-.1.5-.2.7-.4.3-.2.7-.6.6-1 0-.1 0-.2-.1-.2.4-1.1.6-2.2.8-3.3.2-1.2.7-2.3 1.1-3.5 0 .5.1 1 .1 1.6.2 2.1 0 4.3 0 6.4 0 .7 0 1.4.2 2.1.1.3.3 1.5.2 1.6-.5.5-.4 1.1.3 1.2.8.2 1.8-.1 2.3-.6 1-.9.5-2.4.3-3.6-.4-2 .1-4.2 0-6.2-.1-2.3-.4-4.5-.4-6.8 0-1.8.3-3.7-.3-5.5 0-.2.1-.4.1-.6.2-.9-2.8-.4-3.2.4-.3.2-.4.5-.3.8 0 .1.1.1.1.2-.6 2.7-1.3 5.3-2.2 7.9-.3 1-.7 2-1.1 3-.5-.9-1-1.9-1.4-2.8-1.2-2.9-2.2-5.8-3.6-8.6.2-1.3-2.7-1.2-3.3 0-.7 1.4-.6 2.9-.4 4.4.3 1.7.3 3.4.3 5.1 0 3.3.3 6.7.4 10-.3.3-.4.7-.1 1.2.1.2.3.3.5.5 1.2.7 3.3.2 3.3-1Zm18.2-18.4c-.1-.6-3.4.1-3.3.9.3 1.8.2 3.6.1 5.4 0 1.7.4 3.3.6 5 .2 1.7-.1 3.5.1 5.2.1.8.6 2.3.1 3-.4.4 1.2.3 1.3.3.6-.1 1.5-.3 1.9-.9.6-.7.2-2 0-2.8-.3-1.7-.1-3.5-.2-5.3-.1-1.7-.6-3.3-.7-4.9.3-2 .4-3.9.1-5.9Zm3.2 6.7c.9 2.5 4.6 1.3 6.6 1.5 3.2.2 2.3 4.6 2.3 6.6 0 1.1 1 2.9.2 3.8-.5.6-1.7.6-2.4.6-.7.1-1.9.3-2.3-.4-.8-1.2.1-3.2-.1-4.6-.1-.8-3.4-.1-3.3.9.3 2.2-1.2 5.2 2 5.6 2.1.2 4.4-.1 6.3-.8 1-.3 1.9-.8 2.7-1.5.9-.8.6-2 .4-3-.6-2.5.6-5.3-1-7.5-1.7-2.3-5-.7-7.2-1.3-1.2-.2-1.2-1.8-1.2-2.8 0-1.2-.1-2.3-.2-3.5-.1-.9 0-1.8.6-2.4.1-.1.7-.3.7-.3.3-.1.6-.1.9-.1 1.3-.1 3.9.2 3.4 2.1-.2.9 3 .4 3.3-.5 1-3.9-6.1-3.1-8.2-2.6-1.9.5-3.9 1.6-4 3.7-.1 1 .2 2 .3 3 0 1.2-.3 2.4.2 3.5Zm14.4 1.9c-.1 1.8-.2 3.6-.2 5.4 0 .9.1 1.8.3 2.8.1.8.4 2 .2 2.8-.2.6 3 .2 3.3-.6.5-1.5-.2-3.4-.3-4.9-.1-1.5 0-2.9.1-4.4 1.7-.1 3.4-.2 5.1 0 .1 1.2.2 2.3.3 3.5.1 1 .2 1.9.2 2.9 0 .9.1 2.1-.2 2.9-.7 1.7 2.7 1.6 3.1.3.6-1.6.4-3.5.3-5.2-.3-2.2-.6-4.2-.6-6.3-.1-3.2-.6-6.3-.6-9.5 0-1.7-3.3-1.1-3.3.3 0 3 .4 6 .6 9.1v.2c-1.6 0-3.3.1-4.9.2.2-3.9-.5-7.8-.4-11.7 0-.5-3.3-.1-3.3.9-.2 3.8.4 7.5.3 11.3Zm14.1 5.3c-.3.3-.2.4 0 .5 0 1.5 0 2.9-.2 4.4-.4.6.4 1 .9 1h.1c.6 0 2.2-.3 2.3-1.1.2-1.8.2-3.5.2-5.3 1.3-1.4 2.4-3.1 3.4-4.7.6 1.2 1.2 2.5 1.7 3.9.7 2.3 1.9 4.4 2.6 6.8.5 1.5 3.8.6 3.3-.9-.7-2.3-1.9-4.5-2.6-6.8-.8-2.3-2-4.4-3-6.6.8-1.6 1.7-3.3 2.5-5 .7-1.5 1.2-3.2 2.6-4.3.5-.4.5-.8-.2-.8-.7-.1-1.7.2-2.3.6-1.3 1-2 2.2-2.7 3.6-.8 1.7-1.6 3.4-2.5 5.1-.1.1-.1.2-.2.4-.4.3-.7.6-.5 1.1-.7 1.3-1.3 2.6-2.1 3.9-.3-4.7-.8-9.3-1-14 0-1.1-3.3-.4-3.3.9.2 5.7 1 11.5 1 17.3Zm31.5-6.2c-.2-.7-1.2-.7-1.9-.6v-.8c-.1-2.2-.1-4.5-.3-6.8-.2-2.1-1.3-2.8-3.3-2.7-2 .1-4.4.4-6.3 1.2-2.2.9-3.4 2.5-3.8 4.8-.5 2.5.2 5.2.3 7.8.1 3 .1 5.9.1 8.9 0 .5 3.3 0 3.3-.9v-7c0-.7 0-1.4-.1-2.1 1.2-.5 3.1 0 4.3.1.9.1 1.8-.1 2.7-.2 0 1.9.1 3.9.2 5.9 0 1 .4 3-.3 3.8-.4.4 1.2.3 1.3.3.7-.1 1.5-.3 1.9-.9.8-.9.4-3.2.3-4.3-.1-1.6-.1-3.2-.1-4.8.8-.4 1.9-1 1.7-1.7Zm-6.6-.2c-1.9 0-3.8-.3-5.7 0-.1-1.1-.2-2.1-.3-3.2-.1-2 .1-4.7 1.9-5.9.5-.3 1.4-.3 2-.4.8-.1 1.6-.3 2.4.2 1 .7.8 3.1.8 4.1 0 1.7.2 3.4.3 5.1-.5.1-1 .1-1.4.1Zm-60.2-11.3c0 .2 0 .4.1.5v.4c.1.2.2.3.4.4.3.2.7.2 1.1.2.4 0 .9-.2 1.2-.4l.2-.2c.4-.3.8-.7.6-1.1-.4-.9-.4-1.9-.3-2.9 0-.8-.8-1.1-1.5-1-.6.1-1.8.5-1.8 1.3s-.1 1.7.1 2.5c-.1.1-.1.2-.1.3Zm61.5 29.2c-1.6-.6-3.3-.6-4.9-.8-1.6-.2-3.2-.4-4.9-.6-1.6.1-3.3 0-5 .1l-4.9.3c-6.5.3-13 .3-19.5.1-6.5-.1-13-.5-19.6-.5-3.3 0-6.6.1-9.9.3-1.6.3-3.2.5-4.9.9-1.6.4-3.1.9-4.8 1 1.6.4 3.3.3 5 .3 1.6 0 3.2.1 4.9.2 3.2-.2 6.5-.2 9.7-.3 6.5 0 13 .3 19.6.5 6.5.1 13.1.2 19.7-.1l4.9-.3c1.6-.1 3.2-.1 4.8-.1 1.6-.1 3.3-.3 4.9-.5 1.7-.2 3.2-.6 4.9-.5h.1v-.6c0 .4 0 .5-.1.6Z"/></symbol><symbol id="right-arrow"><path d="M0 11h42.3l-8.1-8.2L37 0l13 13-13 13-2.8-2.8 8.1-8.2H0v-4Z"/></symbol><symbol id="rocket"><path d="M40.947 5.75A47.823 47.823 0 0 0 28.41 4.065c-2.932 0-5.56.198-7.785.594L13.75 0H.101l5.864 6.147h8.493c-4.651 1.586-6.875 3.47-6.875 3.47v3.767s2.325 1.883 6.976 3.47H5.864L0 23h13.649l6.875-4.66c2.325.397 4.853.595 7.785.595 4.55 0 8.796-.694 12.537-1.685-1.214-1.784-1.921-3.668-1.921-5.85.1-1.982.91-3.865 2.022-5.65Zm3.538.991c-1.314 1.586-2.022 3.173-2.022 4.759 0 1.586.708 3.172 2.022 4.759C50.955 14.077 55 11.499 55 11.499s-4.044-2.577-10.515-4.758Z" fill="#63D1BB"/></symbol><symbol id="search"><path d="m17.693 16.057-3.477-3.477c1.023-1.33 1.534-2.966 1.534-4.705C15.75 3.477 12.273 0 7.875 0S0 3.477 0 7.875s3.477 7.875 7.875 7.875c1.739 0 3.375-.614 4.704-1.534l3.478 3.477c.204.205.409.307.818.307.614 0 1.125-.511 1.125-1.125 0-.204-.102-.511-.307-.818ZM2.25 7.875c0-3.068 2.557-5.625 5.625-5.625S13.5 4.807 13.5 7.875 10.943 13.5 7.875 13.5 2.25 10.943 2.25 7.875Z"/></symbol><symbol id="sprite"/><symbol id="telegram"><path fill-rule="evenodd" clip-rule="evenodd" d="M19.46.653c.18.15.265.382.227.611l-2.626 15.757a.657.657 0 0 1-1.012.439l-7.878-5.253a.656.656 0 0 1-.149-.956l2.611-3.263-4.36 2.906a.657.657 0 0 1-.658.041L.363 8.31a.657.657 0 0 1 .073-1.205L18.819.538a.657.657 0 0 1 .642.115ZM2.327 7.823 5.862 9.59l7.561-5.04a.656.656 0 0 1 .877.956l-4.805 6.006 6.438 4.292L18.208 2.15 2.326 7.823Z"/></symbol><symbol id="vk"><path d="M0 2.839c0-.855.515-1.316 1.545-1.383l3.97.025a.52.52 0 0 1 .533.377c.409 1.257.866 2.343 1.372 3.257.506.913 1.168 1.965 1.985 3.156a.36.36 0 0 0 .346.226c.125 0 .222-.059.293-.176l.08-.277.027-4.35c0-.302-.075-.503-.226-.604-.151-.1-.431-.176-.84-.226-.32-.05-.48-.235-.48-.553 0-.067.01-.118.027-.151.373-1.09 1.44-1.635 3.198-1.635L13.322.5c.675 0 1.234.16 1.678.478.444.318.666.821.666 1.509v5.708c.125.084.24.126.347.126.266 0 .497-.15.692-.453 1.954-2.582 3.011-4.308 3.17-5.18 0-.017.019-.059.054-.126.125-.251.329-.47.613-.654.284-.184.533-.31.746-.377a.554.554 0 0 1 .24-.05h4.13l.266.025c.355 0 .63.16.826.478.07.1.12.21.146.327.027.117.045.234.054.352.009.117.013.184.013.2v.177c-.124.687-.44 1.42-.946 2.2-.506.78-1.15 1.622-1.931 2.528-.782.905-1.27 1.5-1.466 1.785-.16.201-.24.386-.24.553 0 .135.071.286.213.453l3.89 4.627c.213.269.32.562.32.88 0 .386-.16.705-.48.956-.32.252-.701.394-1.145.428l-.453.025h-4.05a.855.855 0 0 0-.106.012.862.862 0 0 1-.107.013c-.39 0-.755-.16-1.092-.478-.125-.134-.96-1.123-2.505-2.967a1.387 1.387 0 0 0-.373-.327c-.07.268-.164.654-.28 1.157-.115.503-.2.863-.253 1.081l-.08.428c-.177.586-.55.938-1.119 1.056l-.373.025h-2.61c-1.475 0-2.945-.637-4.41-1.911-1.466-1.275-2.784-2.922-3.957-4.942C2.238 8.602 1.146 6.25.133 3.568A1.916 1.916 0 0 1 0 2.838Zm16.013 6.513c-.373 0-.71-.096-1.013-.29-.302-.192-.453-.456-.453-.791V2.487c0-.336-.089-.575-.266-.717-.178-.143-.489-.214-.933-.214l-1.518.05c-.764 0-1.341.126-1.732.378.781.352 1.172.922 1.172 1.71V8.12a1.5 1.5 0 0 1-.533 1.043 1.59 1.59 0 0 1-1.066.415c-.532 0-.94-.243-1.225-.729C7.06 6.871 6.03 4.993 5.356 3.216l-.24-.654-3.544-.025c-.231 0-.36.013-.386.038-.027.025-.04.096-.04.213 0 .151.017.31.053.478l.56 1.409c1.491 3.638 3.112 6.505 4.862 8.6 1.75 2.096 3.468 3.144 5.155 3.144h2.665c.106 0 .186-.03.24-.088.053-.06.097-.172.133-.34l.053-.251.506-2.213c.142-.302.267-.503.373-.604a.975.975 0 0 1 .693-.277c.426 0 .861.243 1.305.73l2.265 2.716c.142.218.293.327.453.327h4.396c.533 0 .8-.126.8-.378a.466.466 0 0 0-.08-.251l-3.864-4.552c-.302-.352-.453-.73-.453-1.131 0-.403.142-.788.427-1.157.23-.336.679-.893 1.345-1.673a37.63 37.63 0 0 0 1.745-2.188c.498-.679.826-1.295.986-1.848l.08-.327a.371.371 0 0 1-.027-.163.574.574 0 0 0-.026-.189h-4.183c-.267.1-.48.252-.64.453l-.16.478c-.444 1.156-1.607 2.942-3.49 5.356a1.892 1.892 0 0 1-1.305.503Z"/></symbol><symbol id="youtube"><path d="m15.85 9.293-5.236-3.491a.655.655 0 0 0-1.014.545v6.982a.655.655 0 0 0 1.014.546l5.237-3.491a.655.655 0 0 0 0-1.091Zm-4.94 2.814V7.57l3.403 2.27-3.404 2.268Zm12.48-8.563a2.4 2.4 0 0 0-1.452-1.637C18.218.478 12.251.5 12 .5c-.25 0-6.218-.022-9.938 1.407A2.4 2.4 0 0 0 .61 3.544C.327 4.613 0 6.576 0 9.838c0 3.262.327 5.226.61 6.295a2.4 2.4 0 0 0 1.452 1.636c3.72 1.43 9.687 1.407 9.938 1.407h.076c.753 0 6.317-.043 9.862-1.407a2.4 2.4 0 0 0 1.451-1.636c.284-1.07.611-3.033.611-6.295s-.327-5.225-.61-6.294Zm-1.266 12.261a1.09 1.09 0 0 1-.655.742c-3.49 1.342-9.404 1.32-9.469 1.32-.066 0-5.978.022-9.47-1.32a1.09 1.09 0 0 1-.654-.742c-.261-1.003-.567-2.847-.567-5.967 0-3.12.306-4.963.567-5.967a1.09 1.09 0 0 1 .655-.742C6.02 1.787 11.934 1.81 12 1.81c.066 0 5.978-.022 9.47 1.32a1.092 1.092 0 0 1 .654.742c.262 1.004.567 2.847.567 5.967 0 3.12-.305 4.964-.567 5.968Z"/></symbol></svg>