<svg width="0" height="0" class="hidden">
  <symbol xmlns="http://www.w3.org/2000/svg" viewBox="0 0 86 35" id="mishka-logo-mobile">
    <path d="M4.54732 26.3186C4.54732 22.8186 4.24733 19.4186 4.14733 15.9186C4.14733 15.6186 4.14733 15.2186 4.14733 14.9186C4.14733 15.0186 4.24732 15.1186 4.24732 15.3186C4.74732 16.7186 5.34732 18.0186 6.04732 19.2186C6.74732 20.4186 7.14732 21.8186 7.54732 23.1186C7.34732 23.3186 7.24733 23.5186 7.34733 23.7186C7.34733 23.9186 7.44732 23.9186 7.54732 24.0186C8.04732 24.5186 9.04733 24.2186 9.64733 24.0186C9.84733 23.9186 10.1473 23.8186 10.3473 23.6186C10.6473 23.4186 11.0473 23.0186 10.9473 22.6186C10.9473 22.5186 10.9473 22.4186 10.8473 22.4186C11.2473 21.3186 11.4473 20.2186 11.6473 19.1186C11.8473 17.9186 12.3473 16.8186 12.7473 15.6186C12.7473 16.1186 12.8473 16.6186 12.8473 17.2186C13.0473 19.3186 12.8473 21.5186 12.8473 23.6186C12.8473 24.3186 12.8473 25.0186 13.0473 25.7186C13.1473 26.0186 13.3473 27.2186 13.2473 27.3186C12.7473 27.8186 12.8473 28.4186 13.5473 28.5186C14.3473 28.7186 15.3473 28.4186 15.8473 27.9186C16.8473 27.0186 16.3473 25.5186 16.1473 24.3186C15.7473 22.3186 16.2473 20.1186 16.1473 18.1186C16.0473 15.8186 15.7473 13.6186 15.7473 11.3186C15.7473 9.51856 16.0473 7.61856 15.4473 5.81856C15.4473 5.61856 15.5473 5.41856 15.5473 5.21856C15.7473 4.31856 12.7473 4.81856 12.3473 5.61856C12.0473 5.81856 11.9473 6.11856 12.0473 6.41856C12.0473 6.51856 12.1473 6.51856 12.1473 6.61856C11.5473 9.31856 10.8473 11.9186 9.94733 14.5186C9.64733 15.5186 9.24733 16.5186 8.84733 17.5186C8.34733 16.6186 7.84733 15.6186 7.44733 14.7186C6.24733 11.8186 5.24733 8.91856 3.84733 6.11856C4.04733 4.81856 1.14732 4.91856 0.547324 6.11856C-0.152676 7.51856 -0.0526737 9.01856 0.147326 10.5186C0.447326 12.2186 0.447326 13.9186 0.447326 15.6186C0.447326 18.9186 0.747327 22.3186 0.847327 25.6186C0.547327 25.9186 0.447325 26.3186 0.747325 26.8186C0.847325 27.0186 1.04732 27.1186 1.24732 27.3186C2.44732 28.0186 4.54732 27.5186 4.54732 26.3186Z" fill="black"></path>
    <path d="M22.7473 7.91856C22.6473 7.31856 19.3473 8.01856 19.4473 8.81856C19.7473 10.6186 19.6473 12.4186 19.5473 14.2186C19.5473 15.9186 19.9473 17.5186 20.1473 19.2186C20.3473 20.9186 20.0473 22.7186 20.2473 24.4186C20.3473 25.2186 20.8473 26.7186 20.3473 27.4186C19.9473 27.8186 21.5473 27.7186 21.6473 27.7186C22.2473 27.6186 23.1473 27.4186 23.5473 26.8186C24.1473 26.1186 23.7473 24.8186 23.5473 24.0186C23.2473 22.3186 23.4473 20.5186 23.3473 18.7186C23.2473 17.0186 22.7473 15.4186 22.6473 13.8186C22.9473 11.8186 23.0473 9.91856 22.7473 7.91856Z" fill="black"></path>
    <path d="M25.9473 14.6186C26.8473 17.1186 30.5473 15.9186 32.5473 16.1186C35.7473 16.3186 34.8473 20.7186 34.8473 22.7186C34.8473 23.8186 35.8473 25.6186 35.0473 26.5186C34.5473 27.1186 33.3473 27.1186 32.6473 27.1186C31.9473 27.2186 30.7473 27.4186 30.3473 26.7186C29.5473 25.5186 30.4473 23.5186 30.2473 22.1186C30.1473 21.3186 26.8473 22.0186 26.9473 23.0186C27.2473 25.2186 25.7473 28.2186 28.9473 28.6186C31.0473 28.8186 33.3473 28.5186 35.2473 27.8186C36.2473 27.5186 37.1473 27.0186 37.9473 26.3186C38.8473 25.5186 38.5473 24.3186 38.3473 23.3186C37.7473 20.8186 38.9473 18.0186 37.3473 15.8186C35.6473 13.5186 32.3473 15.1186 30.1473 14.5186C28.9473 14.3186 28.9473 12.7186 28.9473 11.7186C28.9473 10.5186 28.8473 9.41856 28.7473 8.21856C28.6473 7.31856 28.7473 6.41856 29.3473 5.81856C29.4473 5.71856 30.0473 5.51856 30.0473 5.51856C30.3473 5.41856 30.6473 5.41856 30.9473 5.41856C32.2473 5.31856 34.8473 5.61856 34.3473 7.51856C34.1473 8.41856 37.3473 7.91856 37.6473 7.01856C38.6473 3.11856 31.5473 3.91856 29.4473 4.41856C27.5473 4.91856 25.5473 6.01856 25.4473 8.11856C25.3473 9.11856 25.6473 10.1186 25.7473 11.1186C25.7473 12.3186 25.4473 13.5186 25.9473 14.6186Z" fill="black"></path>
    <path d="M40.3473 16.5186C40.2473 18.3186 40.1473 20.1186 40.1473 21.9186C40.1473 22.8186 40.2473 23.7186 40.4473 24.7186C40.5473 25.5186 40.8473 26.7186 40.6473 27.5186C40.4473 28.1186 43.6473 27.7186 43.9473 26.9186C44.4473 25.4186 43.7473 23.5186 43.6473 22.0186C43.5473 20.5186 43.6473 19.1186 43.7473 17.6186C45.4473 17.5186 47.1473 17.4186 48.8473 17.6186C48.9473 18.8186 49.0473 19.9186 49.1473 21.1186C49.2473 22.1186 49.3473 23.0186 49.3473 24.0186C49.3473 24.9186 49.4473 26.1186 49.1473 26.9186C48.4473 28.6186 51.8473 28.5186 52.2473 27.2186C52.8473 25.6186 52.6473 23.7186 52.5473 22.0186C52.2473 19.8186 51.9473 17.8186 51.9473 15.7186C51.8473 12.5186 51.3473 9.41856 51.3473 6.21856C51.3473 4.51856 48.0473 5.11856 48.0473 6.51856C48.0473 9.51856 48.4473 12.5186 48.6473 15.6186C48.6473 15.7186 48.6473 15.7186 48.6473 15.8186C47.0473 15.8186 45.3473 15.9186 43.7473 16.0186C43.9473 12.1186 43.2473 8.21856 43.3473 4.31856C43.3473 3.81856 40.0473 4.21856 40.0473 5.21856C39.8473 9.01856 40.4473 12.7186 40.3473 16.5186Z" fill="black"></path>
    <path d="M54.4473 21.8186C54.1473 22.1186 54.2473 22.2186 54.4473 22.3186C54.4473 23.8186 54.4473 25.2186 54.2473 26.7186C53.8473 27.3186 54.6473 27.7186 55.1473 27.7186H55.2473C55.8473 27.7186 57.4473 27.4186 57.5473 26.6186C57.7473 24.8186 57.7473 23.1186 57.7473 21.3186C59.0473 19.9186 60.1473 18.2186 61.1473 16.6186C61.7473 17.8186 62.3473 19.1186 62.8473 20.5186C63.5473 22.8186 64.7473 24.9186 65.4473 27.3186C65.9473 28.8186 69.2473 27.9186 68.7473 26.4186C68.0473 24.1186 66.8473 21.9186 66.1473 19.6186C65.3473 17.3186 64.1473 15.2186 63.1473 13.0186C63.9473 11.4186 64.8473 9.71856 65.6473 8.01856C66.3473 6.51856 66.8473 4.81856 68.2473 3.71856C68.7473 3.31856 68.7473 2.91856 68.0473 2.91856C67.3473 2.81856 66.3473 3.11856 65.7473 3.51856C64.4473 4.51856 63.7473 5.71856 63.0473 7.11856C62.2473 8.81856 61.4473 10.5186 60.5473 12.2186C60.4473 12.3186 60.4473 12.4186 60.3473 12.6186C59.9473 12.9186 59.6473 13.2186 59.8473 13.7186C59.1473 15.0186 58.5473 16.3186 57.7473 17.6186C57.4473 12.9186 56.9473 8.31856 56.7473 3.61856C56.7473 2.51856 53.4473 3.21856 53.4473 4.51856C53.6473 10.2186 54.4473 16.0186 54.4473 21.8186Z" fill="black"></path>
    <path d="M85.9473 15.6186C85.7473 14.9186 84.7473 14.9186 84.0473 15.0186C84.0473 14.7186 84.0473 14.4186 84.0473 14.2186C83.9473 12.0186 83.9473 9.71856 83.7473 7.41856C83.5473 5.31856 82.4473 4.61856 80.4473 4.71856C78.4473 4.81856 76.0473 5.11856 74.1473 5.91856C71.9473 6.81856 70.7473 8.41856 70.3473 10.7186C69.8473 13.2186 70.5473 15.9186 70.6473 18.5186C70.7473 21.5186 70.7473 24.4186 70.7473 27.4186C70.7473 27.9186 74.0473 27.4186 74.0473 26.5186C74.0473 24.2186 74.0473 21.8186 74.0473 19.5186C74.0473 18.8186 74.0473 18.1186 73.9473 17.4186C75.1473 16.9186 77.0473 17.4186 78.2473 17.5186C79.1473 17.6186 80.0473 17.4186 80.9473 17.3186C80.9473 19.2186 81.0473 21.2186 81.1473 23.2186C81.1473 24.2186 81.5473 26.2186 80.8473 27.0186C80.4473 27.4186 82.0473 27.3186 82.1473 27.3186C82.8473 27.2186 83.6473 27.0186 84.0473 26.4186C84.8473 25.5186 84.4473 23.2186 84.3473 22.1186C84.2473 20.5186 84.2473 18.9186 84.2473 17.3186C85.0473 16.9186 86.1473 16.3186 85.9473 15.6186ZM79.3473 15.4186C77.4473 15.4186 75.5473 15.1186 73.6473 15.4186C73.5473 14.3186 73.4473 13.3186 73.3473 12.2186C73.2473 10.2186 73.4473 7.51856 75.2473 6.31856C75.7473 6.01856 76.6473 6.01856 77.2473 5.91856C78.0473 5.81856 78.8473 5.61856 79.6473 6.11856C80.6473 6.81856 80.4473 9.21856 80.4473 10.2186C80.4473 11.9186 80.6473 13.6186 80.7473 15.3186C80.2473 15.4186 79.7473 15.4186 79.3473 15.4186Z" fill="black"></path>
    <path d="M19.1473 4.11856C19.1473 4.31856 19.1473 4.51856 19.2473 4.61856V4.71856C19.2473 4.81856 19.2473 4.91856 19.2473 5.01856C19.3473 5.21856 19.4473 5.31856 19.6473 5.41856C19.9473 5.61856 20.3473 5.61856 20.7473 5.61856C21.1473 5.61856 21.6473 5.41856 21.9473 5.21856C22.0473 5.11856 22.0473 5.11856 22.1473 5.01856C22.5473 4.71856 22.9473 4.31856 22.7473 3.91856C22.3473 3.01856 22.3473 2.01856 22.4473 1.01856C22.4473 0.218559 21.6473 -0.0814409 20.9473 0.0185591C20.3473 0.118559 19.1473 0.518558 19.1473 1.31856C19.1473 2.11856 19.0473 3.01856 19.2473 3.81856C19.1473 3.91856 19.1473 4.01856 19.1473 4.11856Z" fill="black"></path>
    <path d="M80.6473 33.3186C79.0473 32.7186 77.3473 32.7186 75.7473 32.5186C74.1473 32.3186 72.5473 32.1186 70.8473 31.9186C69.2473 32.0186 67.5473 31.9186 65.8473 32.0186L60.9473 32.3186C54.4473 32.6186 47.9473 32.6186 41.4473 32.4186C34.9473 32.3186 28.4473 31.9186 21.8473 31.9186C18.5473 31.9186 15.2473 32.0186 11.9473 32.2186C10.3473 32.5186 8.74733 32.7186 7.04733 33.1186C5.44733 33.5186 3.94733 34.0186 2.24733 34.1186C3.84733 34.5186 5.54733 34.4186 7.24733 34.4186C8.84733 34.4186 10.4473 34.5186 12.1473 34.6186C15.3473 34.4186 18.6473 34.4186 21.8473 34.3186C28.3473 34.3186 34.8473 34.6186 41.4473 34.8186C47.9473 34.9186 54.5473 35.0186 61.1473 34.7186L66.0473 34.4186C67.6473 34.3186 69.2473 34.3186 70.8473 34.3186C72.4473 34.2186 74.1473 34.0186 75.7473 33.8186C77.4473 33.6186 78.9473 33.2186 80.6473 33.3186H80.7473V33.2186C80.7473 33.0186 80.7473 32.9186 80.7473 32.7186C80.7473 33.1186 80.7473 33.2186 80.6473 33.3186Z" fill="black"></path>
  </symbol>
   <symbol xmlns="http://www.w3.org/2000/svg" viewBox="0 0 114 46" id="logo-background">
    <path d="M110.889 41.8087C115.312 42.7068 111.693 5.98661 110.989 3.59182C108.979 -2.99387 84.1469 1.49637 78.6176 1.8955C65.8498 2.89333 53.283 0.897673 40.8169 1.49637C34.5838 1.79572 5.73056 -0.299724 3.11668 3.49203C-1.91001 10.6764 0.402269 29.2361 1.80974 38.5159C-2.21161 39.3142 4.12202 42.7068 4.92629 43.4053C11.2599 45.6005 21.4138 43.2057 28.0491 43.8044C43.5313 45.3011 60.0188 41.6092 75.6015 42.8066C80.1256 43.9042 85.2528 43.8044 89.8773 44.004C93.396 49.5918 109.682 41.6092 110.889 41.8087C111.392 41.9085 110.788 41.8087 110.889 41.8087Z" fill="black"></path>
    <path d="M26.2395 24.3475C26.139 21.853 25.7368 19.2586 25.7368 16.764C25.7368 14.6686 26.139 12.5731 25.4352 10.5775C25.4352 10.3779 25.5358 10.1783 25.5358 9.879C25.7368 8.88117 22.4192 9.38008 21.9165 10.2781C21.6149 10.5775 21.4139 10.8768 21.5144 11.1762C21.5144 11.276 21.6149 11.3757 21.6149 11.3757C21.0117 14.3692 20.1069 17.3627 19.1016 20.2564C18.6995 21.3541 18.2973 22.4517 17.8952 23.6491C17.292 22.6512 16.7893 21.5536 16.2866 20.456C14.9797 17.1632 13.7733 13.8703 12.1648 10.777C12.3658 9.2803 9.14875 9.47986 8.44501 10.777C7.64074 12.3736 7.74127 13.9701 8.04287 15.6664C8.34448 17.5623 8.34447 19.4582 8.44501 21.4538C8.44501 25.2456 8.74661 28.9376 8.84714 32.7293C8.54554 33.1285 8.44501 33.5276 8.74661 34.0265C8.94768 34.2261 9.04821 34.4256 9.24928 34.5254C10.1541 35.2239 12.5669 34.6252 12.5669 33.328C12.5669 29.4365 12.2653 25.5449 12.1648 21.6534C12.1648 21.2543 12.1648 20.8551 12.1648 20.5558C12.2653 20.6556 12.2653 20.8551 12.3658 20.9549C12.969 22.4517 13.5722 23.9484 14.477 25.3454C15.2813 26.7423 15.6834 28.2391 16.1861 29.7358C15.985 29.9354 15.8845 30.135 15.985 30.4343C15.985 30.6339 16.0856 30.7337 16.1861 30.7337C16.7893 31.2326 17.8952 31.033 18.5989 30.7337C18.9005 30.6339 19.1016 30.5341 19.4032 30.3345C19.7048 30.135 20.2075 29.7358 20.1069 29.2369C20.1069 29.1371 20.0064 29.0373 20.0064 28.9376C20.4085 27.7402 20.7101 26.443 20.9112 25.2456C21.2128 23.8486 21.6149 22.6512 22.1176 21.3541C22.1176 21.9528 22.2181 22.5514 22.2181 23.1501C22.4192 25.5449 22.2181 27.9397 22.2181 30.3345C22.2181 31.1328 22.3187 31.8313 22.4192 32.6295C22.5197 32.9289 22.7208 34.3259 22.7208 34.4256C22.1176 34.9246 22.3187 35.623 23.1229 35.8226C24.0277 36.0222 25.1336 35.7228 25.7368 35.1241C26.8427 34.1263 26.34 32.43 26.0384 31.1328C25.7368 29.1371 26.34 26.6426 26.2395 24.3475Z" fill="white"></path>
    <path d="M34.1817 25.046C34.0811 23.1501 33.4779 21.3541 33.4779 19.4582C33.4779 17.2629 33.679 15.0677 33.3774 12.9723C33.2769 12.2738 29.5571 13.0721 29.6576 13.9701C29.9592 15.9658 29.8587 17.9614 29.8587 19.9571C29.8587 21.853 30.2608 23.6491 30.5624 25.5449C30.864 27.5406 30.4619 29.4365 30.663 31.4321C30.7635 32.3302 31.3667 34.0265 30.7635 34.8248C30.3614 35.3237 32.171 35.1241 32.2715 35.1241C32.9753 35.0243 33.9806 34.725 34.4833 34.1263C35.0865 33.328 34.6843 31.8313 34.5838 30.9332C34.0811 29.0373 34.2822 26.9419 34.1817 25.046Z" fill="white"></path>
    <path d="M49.7644 21.853C47.7537 19.2586 44.1345 21.1545 41.6212 20.3562C40.3142 19.9571 40.3142 18.161 40.3142 17.1632C40.3142 15.7662 40.2137 14.5688 40.0126 13.2716C39.9121 12.2738 40.0126 11.276 40.7164 10.4777C40.8169 10.3779 41.5206 10.1783 41.5206 10.1783C41.8222 10.0786 42.1238 10.0786 42.526 10.0786C44.034 9.97878 46.9494 10.2781 46.3462 12.4734C46.0446 13.4712 49.7644 12.8725 50.066 11.8747C51.2724 7.4842 43.1292 8.38225 40.8169 8.98095C38.7057 9.57965 36.3934 10.777 36.2929 13.1718C36.1923 14.3692 36.5945 15.4669 36.5945 16.5645C36.695 17.8616 36.3934 19.1588 36.8961 20.456C37.9014 23.2499 42.1238 21.9528 44.3356 22.1523C47.9548 22.4517 46.9495 27.341 46.9495 29.636C46.9495 30.8334 48.0553 32.9289 47.1505 33.9267C46.5473 34.5254 45.2404 34.6252 44.5366 34.6252C43.7324 34.725 42.4254 34.9246 41.9228 34.2261C41.018 32.9289 42.0233 30.6339 41.8222 29.1371C41.7217 28.2391 37.9014 29.0373 38.1025 30.135C38.4041 32.6295 36.7955 35.9224 40.4148 36.4213C42.727 36.7206 45.3409 36.2217 47.5527 35.5232C48.6585 35.1241 49.7644 34.6252 50.6692 33.8269C51.6745 32.9289 51.3729 31.6317 51.0713 30.4343C50.2671 27.4408 51.574 24.2478 49.7644 21.853Z" fill="white"></path>
    <path d="M66.3525 21.6534C66.252 18.0612 65.6488 14.5688 65.6488 10.9766C65.6488 9.08073 61.8285 9.77921 61.8285 11.276C61.8285 14.6686 62.3311 18.0612 62.4317 21.4538C62.4317 21.5536 62.4317 21.5536 62.4317 21.6534C60.6221 21.6534 58.7119 21.853 56.8018 21.853C57.0028 17.4625 56.1986 13.0721 56.3996 8.78138C56.3996 8.18268 52.6799 8.6816 52.6799 9.77921C52.4788 13.9701 53.2831 18.2608 53.082 22.4517C52.9815 24.4473 52.881 26.443 52.881 28.5384C52.881 29.5363 53.082 30.6339 53.1826 31.6317C53.2831 32.5298 53.6852 33.8269 53.3836 34.725C53.1826 35.4235 56.8018 35.0243 57.1034 34.0265C57.606 32.3302 56.9023 30.2347 56.7012 28.5384C56.5002 26.9419 56.7012 25.2456 56.8018 23.5493C58.7119 23.4495 60.7226 23.2499 62.6327 23.5493C62.7333 24.8465 62.8338 26.1436 62.9343 27.4408C63.0349 28.5384 63.1354 29.636 63.1354 30.7337C63.1354 31.7315 63.2359 33.1285 62.9343 34.0265C62.2306 36.0222 65.9503 35.8226 66.453 34.3259C67.1568 32.5298 66.9557 30.3345 66.8552 28.5384C66.7546 26.3432 66.3525 23.9484 66.3525 21.6534Z" fill="white"></path>
    <path d="M82.4378 25.9441C81.533 23.3497 80.1256 21.0547 79.0197 18.5601C80.025 16.6642 80.9298 14.8682 81.8346 12.9723C82.6389 11.276 83.2421 9.38008 84.7501 8.18269C85.2528 7.78355 85.2528 7.38442 84.5491 7.28464C83.7448 7.18485 82.5384 7.4842 81.9352 7.98312C80.5277 9.08073 79.6229 10.3779 78.9192 12.0742C78.0144 13.9701 77.1096 15.9658 76.1042 17.8616C76.0037 17.9614 76.0037 18.161 75.9032 18.2608C75.4005 18.5601 75.1994 18.9593 75.3 19.4582C74.4957 20.9549 73.7919 22.4517 72.8871 23.8486C72.5855 18.5601 71.9823 13.3714 71.7813 8.0829C71.7813 6.88551 67.961 7.58399 68.0615 9.08073C68.2626 15.5666 69.2679 22.0525 69.2679 28.5384C68.9663 28.8378 69.0669 29.0374 69.3685 29.1371C69.3685 30.8334 69.2679 32.43 69.1674 34.1263C68.7653 34.8248 69.5695 35.2239 70.1727 35.2239H70.2733C70.977 35.2239 72.7866 34.9246 72.8871 33.9267C73.0882 31.9311 73.0882 29.9354 73.0882 27.9397C74.5962 26.3432 75.8026 24.5471 76.9085 22.6512C77.6122 24.0482 78.316 25.4452 78.8186 26.9419C79.6229 29.5363 81.0304 31.9311 81.8346 34.5254C82.3373 36.2217 86.0571 35.2239 85.5544 33.5276C84.6496 30.9332 83.3427 28.5384 82.4378 25.9441Z" fill="white"></path>
    <path d="M104.857 21.5536C104.656 20.7554 103.55 20.7554 102.645 20.8551C102.645 20.5558 102.645 20.2564 102.645 19.8573C102.545 17.3627 102.444 14.7684 102.243 12.2738C102.042 9.97878 100.735 9.08073 98.4228 9.18052C96.1105 9.2803 93.3961 9.67943 91.2849 10.4777C88.7716 11.4755 87.3641 13.2716 86.962 15.866C86.4593 18.7597 87.163 21.7532 87.3641 24.6469C87.4646 27.9397 87.4646 31.3324 87.4646 34.6252C87.4646 35.1241 91.1844 34.6252 91.1844 33.6274C91.1844 31.033 91.1844 28.3389 91.1844 25.7445C91.1844 24.9462 91.1844 24.2478 91.0839 23.4495C92.3908 22.8508 94.6025 23.4495 95.9095 23.5493C97.0153 23.6491 98.0207 23.3497 99.026 23.2499C99.026 25.4452 99.1266 27.6404 99.2271 29.8356C99.2271 30.9332 99.7298 33.2282 98.9255 34.1263C98.5234 34.6252 100.333 34.4256 100.433 34.4256C101.238 34.3259 102.143 34.0265 102.645 33.4278C103.55 32.3302 103.047 29.8356 103.047 28.5384C102.947 26.7423 102.947 24.9462 102.947 23.1501C103.852 23.0504 105.058 22.3519 104.857 21.5536ZM90.9833 21.3541C90.8828 20.1567 90.7823 18.9593 90.6817 17.7619C90.4807 15.5666 90.7823 12.4734 92.8935 11.1762C93.4967 10.777 94.502 10.8768 95.1052 10.777C96.01 10.5775 97.0153 10.3779 97.8196 10.9766C98.9255 11.7749 98.7244 14.469 98.7244 15.5666C98.7244 17.4625 98.9255 19.3584 99.026 21.2543C98.5234 21.3541 97.9202 21.3541 97.4175 21.3541C95.2057 21.2543 92.994 20.9549 90.9833 21.3541Z" fill="white"></path>
    <path d="M30.9646 10.3779C31.4673 10.3779 31.9699 10.1783 32.3721 9.879C32.4726 9.77921 32.5731 9.77922 32.5731 9.67943C33.0758 9.38008 33.4779 8.88117 33.2769 8.38225C32.7742 7.38442 32.8747 6.28681 32.8747 5.18919C32.8747 4.29115 31.9699 3.9918 31.1657 4.09158C30.4619 4.19136 29.0545 4.69028 29.0545 5.48854C29.0545 6.38659 28.9539 7.38442 29.155 8.28247C29.155 8.38225 29.0545 8.48204 29.0545 8.58182C28.9539 8.78138 29.0545 8.98095 29.155 9.18052V9.2803C29.155 9.38008 29.155 9.47987 29.155 9.57965C29.2555 9.77922 29.3561 9.97878 29.5571 10.0786C30.0598 10.3779 30.5625 10.3779 30.9646 10.3779Z" fill="white"></path>
  </symbol>
  <symbol xmlns="http://www.w3.org/2000/svg" viewBox="0 0 149 72" id="mishka-logo-desktop">
    <path d="M144.16 31.1053C142.65 32.1912 141.039 32.9809 139.428 33.8693C139.428 32.1912 139.328 30.4143 138.824 28.8349C138.925 28.5388 138.925 28.1439 138.925 27.8478C139.328 24.8864 139.63 20.8391 136.912 18.7662C136.61 18.47 135.704 18.7662 134.999 19.0623C134.798 18.8649 134.697 18.7662 134.496 18.6674C134.395 18.47 134.295 18.1739 134.295 17.9765C134.295 17.8777 134.093 17.779 133.892 17.779C134.194 17.3842 134.194 16.9893 133.489 16.6932C133.087 16.4958 132.684 16.397 132.382 16.2983C132.281 16.1996 132.281 16.1996 132.181 16.1996C131.275 15.9035 130.268 15.7061 129.261 15.5086C129.362 15.2125 129.664 14.7189 129.865 14.5215C129.966 14.3241 130.167 14.2254 130.268 14.1266C130.369 14.0279 130.369 14.0279 130.469 13.9292C130.469 13.9292 130.57 13.9292 130.57 13.8305C130.57 13.8305 130.57 13.8305 130.671 13.7318C131.073 13.4356 131.476 12.8434 130.872 12.5472C130.268 12.2511 129.362 12.4485 128.859 12.7447C127.953 13.4356 127.248 14.1266 126.745 15.1138C124.732 14.9163 122.718 14.9163 120.604 15.0151C120.705 14.9163 120.705 14.8176 120.705 14.7189C120.906 14.1266 119.799 14.2254 119.497 14.2254C117.886 14.4228 116.376 14.6202 114.766 14.8176C116.175 11.0665 117.886 6.3283 115.772 2.67591C114.564 0.602929 111.847 0.109363 109.632 0.0106495C107.216 -0.0880637 104.699 0.504216 102.585 1.59006C97.7536 4.1566 95.4383 9.19098 94.331 14.5215C93.8277 13.8305 92.0157 14.1266 91.7137 15.0151C91.6131 15.3112 91.5124 15.6073 91.4117 16.0022C91.2104 16.1996 91.1097 16.397 91.1097 16.5945C91.1097 16.6932 91.1097 16.6932 91.1097 16.7919C91.0091 16.7919 91.0091 16.7919 90.9084 16.7919C90.9084 16.6932 90.9084 16.5945 91.0091 16.4958C91.1097 16.397 91.2104 16.2983 91.3111 16.1009C91.915 13.8305 92.519 11.5601 93.2237 9.3884C93.5257 8.5987 90.7071 8.99355 90.4051 9.78326C90.0024 10.9678 89.5998 12.1524 89.2978 13.3369C89.0965 13.4356 88.8951 13.5344 88.8951 13.6331V13.7318C88.7945 13.6331 88.5931 13.5344 88.3918 13.5344C88.3918 13.2382 88.3918 12.9421 88.3918 12.5472C88.3918 12.1524 85.5732 12.5472 85.5732 13.3369C85.5732 13.8305 85.5732 14.3241 85.5732 14.9163C85.3719 15.0151 85.2712 15.1138 85.0699 15.2125C84.9692 15.3112 84.9692 15.3112 84.8686 15.4099C84.7679 15.5086 84.7679 15.6073 84.7679 15.6073V15.7061C84.7679 15.7061 84.7679 15.706 84.6672 15.8048C84.5666 15.9035 84.4659 16.1009 84.6672 16.2983C84.8686 16.4958 85.1706 16.4958 85.3719 16.4958H85.4725C85.4725 16.6932 85.4725 16.7919 85.4725 16.9893C85.2712 16.9893 84.9692 16.9893 84.7679 16.9893L84.3652 16.8906C84.3652 16.4958 83.6606 16.397 82.9559 16.5945V16.4958C82.8553 15.9035 82.7546 15.3112 82.7546 14.7189C82.9559 14.6202 83.2579 14.5215 83.4593 14.4228C83.6606 14.3241 83.7613 14.2254 83.7613 14.0279C83.7613 13.9292 83.7613 13.9292 83.7613 13.8305C83.7613 13.6331 83.3586 13.6331 83.2579 13.6331C83.0566 13.6331 82.8553 13.6331 82.654 13.6331C82.5533 12.3498 82.5533 11.0665 82.5533 9.78326C82.5533 8.99355 79.7347 9.48712 79.7347 10.573C79.7347 12.3498 79.7347 14.1266 79.936 15.8048C79.8354 15.8048 79.7347 15.8048 79.634 15.8048C79.634 15.3112 79.634 14.8176 79.634 14.3241C79.634 13.3369 78.3254 13.1395 77.5201 13.5344C77.8221 13.2382 78.0234 12.9421 77.9227 12.5472C77.5201 11.1652 77.1174 9.78326 76.9161 8.30256C76.7148 6.92057 73.8962 7.61157 74.0975 9.09227C74.2988 10.573 74.7015 11.9549 75.1041 13.3369C75.3055 14.1266 76.4128 14.2254 77.2181 13.8305C77.0168 14.0279 76.8154 14.3241 76.8154 14.6202C76.8154 14.8176 76.8154 15.0151 76.8154 15.2125C76.5135 14.9163 76.3121 14.9163 75.9095 14.9163C74.8022 14.9163 74.1982 15.8048 74.5002 16.397C74.2988 16.397 74.1982 16.2983 73.9968 16.2983C73.5942 15.1138 73.2922 13.8305 73.2922 12.5472C73.2922 11.6588 71.9836 11.5601 71.1783 11.8562C71.1783 11.7575 71.1783 11.7575 71.1783 11.6588C70.7756 10.8691 70.5743 9.98068 70.3729 9.19098C70.071 7.90771 67.1517 8.5987 67.5543 9.98068C67.7557 10.573 67.8563 11.264 68.0577 11.8562C68.0577 11.8562 68.0577 11.8562 67.957 11.8562C67.655 11.9549 67.353 12.0537 67.051 12.2511C66.2457 12.3498 65.2391 12.8434 65.2391 13.4356C65.3397 13.9292 65.3397 14.4228 65.4404 14.8176C65.0377 14.9163 64.4338 14.9163 63.9304 15.0151C63.6285 14.2254 63.4271 13.4356 63.3265 12.6459C63.2258 11.7575 61.7158 11.7575 61.0112 12.3498C60.2059 10.2768 59.1992 8.40127 57.8906 6.62443C55.1727 3.26819 50.6428 2.08363 46.5156 2.97205C44.6029 3.3669 42.791 4.1566 41.4824 5.53859C40.2744 6.92057 40.0731 8.5987 40.2744 10.2768C40.4757 11.7575 40.8784 14.2254 41.885 16.1996C41.4824 16.1996 41.1804 16.1996 40.979 16.2983C40.677 16.397 40.3751 16.4958 40.1737 16.6932C38.2611 16.6932 36.2478 16.6932 34.3352 16.5945C30.1073 16.397 25.9801 15.7061 21.7522 15.9035C20.8462 15.9035 20.2422 16.5945 20.2422 17.1867C19.2356 17.6803 18.531 18.47 18.1283 19.4572C16.417 18.3713 14.6051 17.1867 12.7931 16.2983C12.0885 15.9035 9.47119 16.9893 10.4778 17.4829C12.2898 18.3713 14.1017 19.5559 15.813 20.6417C16.3163 20.9378 17.1217 20.7404 17.625 20.543C17.625 20.543 17.7256 20.543 17.8263 20.4443C17.5243 21.8263 17.625 23.5044 18.0276 24.8864C18.0276 24.9851 18.1283 25.0838 18.229 25.1825C18.229 25.4787 18.229 25.8735 18.229 26.1697C18.229 26.2684 18.229 26.2684 18.229 26.3671C17.8263 26.5645 17.5243 26.8606 17.4236 27.1568C17.2223 28.5388 17.1217 29.9208 17.1217 31.3027C16.8197 31.5002 16.6183 31.7963 16.6183 32.0924C16.417 35.35 16.6183 38.7062 17.1217 41.9638C17.323 44.629 17.8263 47.1956 18.3296 49.8608C18.4303 50.2557 18.4303 50.6505 18.531 51.1441C18.229 52.2299 18.1283 53.5132 18.3296 54.5991C17.4236 54.7965 16.6183 55.4875 17.1217 56.1785C17.927 57.363 18.7323 58.1527 19.7389 58.745C19.1349 58.6463 18.3296 58.8437 17.8263 59.3373C17.021 60.127 16.115 60.818 15.3097 61.6077C14.907 62.0025 15.0077 62.4961 15.6117 62.6935C16.3163 62.891 17.1217 62.5948 17.625 62.2C18.4303 61.4103 19.3363 60.7193 20.1416 59.9296C20.3429 59.7321 20.4436 59.436 20.3429 59.2386C23.5642 60.9167 27.5907 60.5218 31.5166 60.127C30.6106 61.7064 30.0067 63.3845 29.302 65.0627C29 65.7536 31.8186 65.4575 32.1206 64.6678C32.7246 62.9897 33.3286 61.4103 34.2345 59.8309C37.9591 59.9296 41.7844 59.9296 45.5089 59.9296C45.6096 60.127 45.9116 60.2257 46.2136 60.2257C49.5355 60.5219 52.7567 60.127 55.978 59.5347C60.8099 59.3373 65.6417 59.0411 70.4736 58.745C78.0234 58.5476 85.6739 58.4489 93.2237 58.4489C93.3243 58.5476 93.425 58.6463 93.5257 58.745C93.8277 59.0411 94.1297 59.0411 94.5323 59.0411C94.633 59.0411 94.633 59.0411 94.7336 59.0411C95.4383 59.0411 96.1429 59.1399 96.8476 59.1399C97.0489 59.1399 97.1496 59.2386 97.4516 59.1399C98.2569 59.2386 99.0622 59.2386 99.7668 59.3373C99.9682 59.5347 100.27 59.6334 100.572 59.7321C104.397 60.0283 108.223 60.2257 112.048 60.4231C112.149 60.6206 112.551 60.7193 112.853 60.7193C120 60.818 128.255 63.4832 134.597 59.0411C135.1 58.6463 134.899 58.1527 134.295 58.054C134.194 58.054 134.093 58.054 133.993 58.054C135.201 55.29 136.207 52.5261 136.912 49.5647C137.315 49.3673 137.516 49.0711 137.516 48.6763C137.516 47.4917 137.717 46.3071 137.919 45.1226C138.12 44.2342 138.221 43.3457 138.321 42.4573C138.724 40.2856 139.126 38.1139 139.328 36.041C141.643 34.9551 143.858 33.7706 145.972 32.2899C147.582 31.1053 145.166 30.4143 144.16 31.1053ZM88.3918 16.2983L88.2911 16.397C88.3918 16.1009 88.3918 15.8048 88.4925 15.5086H88.5931C88.5931 15.7061 88.4925 16.0022 88.3918 16.2983Z" fill="black"></path>
    <path d="M63.729 12.5468C63.8297 12.7442 64.333 12.7442 64.5343 12.7442C64.937 12.7442 65.3396 12.6455 65.6416 12.5468C66.0443 12.3494 66.7489 11.9545 66.4469 11.461C66.0443 10.8687 65.8429 10.2764 65.4403 9.68411C65.3396 9.48669 64.8363 9.48669 64.635 9.48669C64.2323 9.48669 63.8296 9.5854 63.5277 9.68411C63.125 9.88154 62.4204 10.2764 62.7223 10.77C63.0243 11.3622 63.3263 12.0532 63.729 12.5468Z" fill="black"></path>
    <path d="M20.8461 10.8691C21.0474 11.4613 21.9534 11.4613 22.4567 11.3626C22.96 11.2639 23.866 10.7703 23.6647 10.0793C23.4634 9.48707 23.262 8.79608 22.7587 8.30251C22.2554 7.80894 21.4501 7.90766 20.8461 8.10508C20.4434 8.30251 19.6381 8.89479 20.1414 9.38835C20.5441 9.98063 20.6448 10.2768 20.8461 10.8691Z" fill="black"></path>
    <path d="M30.9124 13.8306C31.7177 13.8306 34.033 12.5474 32.1204 12.5474C31.2144 12.5474 28.9998 13.8306 30.9124 13.8306Z" fill="black"></path>
    <path d="M123.423 12.2512C123.725 12.3499 124.128 12.2512 124.53 12.1525C124.832 12.0538 125.235 11.9551 125.436 11.659C125.839 11.2641 126.141 10.968 126.443 10.4744C126.544 10.277 126.644 10.0795 126.443 9.88212C126.242 9.68469 125.94 9.68469 125.638 9.58598C125.235 9.58598 124.832 9.68469 124.53 9.78341C124.228 9.88212 123.926 10.0795 123.725 10.3757C123.624 10.5731 123.524 10.7705 123.322 10.8693C123.222 10.968 123.222 10.968 123.121 11.0667C122.92 11.2641 122.819 11.4615 122.819 11.659C122.92 12.0538 123.121 12.1525 123.423 12.2512Z" fill="black"></path>
    <path d="M136.811 17.5816C137.415 17.4828 138.22 17.3841 138.723 16.8906C140.032 15.8047 141.341 14.7189 142.347 13.3369C142.649 12.942 141.341 13.1395 141.24 13.1395C140.737 13.2382 139.931 13.4356 139.529 13.8305C138.623 15.1137 137.314 16.1009 136.106 17.1867C135.603 17.5816 136.509 17.5816 136.811 17.5816Z" fill="black"></path>
    <path d="M147.683 44.3332C146.072 44.3332 144.461 44.3332 142.75 44.3332C142.146 44.3332 141.24 44.8268 141.139 45.4191C141.039 46.1101 141.945 46.3075 142.448 46.3075C144.059 46.3075 145.669 46.3075 147.381 46.3075C147.985 46.3075 148.891 45.8139 148.991 45.2216C149.092 44.5307 148.287 44.3332 147.683 44.3332Z" fill="black"></path>
    <path d="M57.3874 60.1268C56.8841 60.2255 55.9781 60.423 55.7768 60.9165C55.2734 62.1998 54.7701 63.4831 54.3675 64.7663C54.1661 65.4573 56.9847 65.0625 57.1861 64.2728C57.5887 62.9895 57.9914 61.7062 58.5954 60.423C58.7967 59.9294 57.5887 60.1268 57.3874 60.1268Z" fill="black"></path>
    <path d="M62.0179 62.6935C61.7159 62.6935 61.3133 62.7922 61.0113 62.8909C60.7093 62.9896 60.3066 63.0883 60.0046 63.2858C59.904 63.3845 59.7026 63.4832 59.7026 63.6806C59.7026 63.7793 59.7026 63.8781 59.7026 63.9768C59.7026 64.0755 59.602 64.1742 59.602 64.2729C59.5013 64.3716 59.5013 64.4703 59.602 64.569C59.8033 64.6678 60.1053 64.6678 60.3066 64.6678C60.7093 64.6678 61.0113 64.569 61.4139 64.3716C61.6153 64.2729 62.0179 64.1742 62.2193 63.9768C62.3199 63.7793 62.4206 63.6806 62.5212 63.4832C62.5212 63.2858 62.5212 63.1871 62.5212 62.9896C62.5212 62.6935 62.1186 62.6935 62.0179 62.6935Z" fill="black"></path>
    <path d="M117.483 66.3456C117.081 65.6546 114.464 66.6417 114.665 67.1353C115.47 68.7147 116.577 70.1954 117.584 71.7748C117.987 72.4658 120.604 71.38 120.403 70.9851C119.396 69.4057 118.289 67.925 117.483 66.3456Z" fill="black"></path>
    <path d="M121.51 63.9767C121.208 63.3844 120.403 63.3844 119.899 63.5818C119.497 63.6805 118.39 64.1741 118.692 64.7664C119.094 65.5561 119.497 66.3458 119.899 67.0368C120.201 67.629 121.007 67.629 121.51 67.4316C121.913 67.3329 123.02 66.8393 122.718 66.2471C122.315 65.5561 121.913 64.7664 121.51 63.9767Z" fill="black"></path>
    <path d="M5.74646 42.6544C4.2365 43.0492 2.72654 43.2467 1.21658 43.6415C0.713257 43.7402 -0.0920558 44.2338 0.00860824 44.9248C0.209936 45.6158 1.11591 45.6158 1.7199 45.5171C3.22986 45.1222 4.73982 44.9248 6.24978 44.5299C6.7531 44.4312 7.55841 43.839 7.45775 43.2467C7.15576 42.5557 6.24978 42.5557 5.74646 42.6544Z" fill="black"></path>
    <path d="M44.0996 39.6922C43.9989 37.0269 43.5963 34.3617 43.5963 31.6964C43.5963 29.5247 43.9989 27.2543 43.1936 25.1814C43.1936 24.9839 43.2943 24.6878 43.2943 24.4904C43.4956 23.4045 39.9724 23.9968 39.469 24.9839C39.167 25.2801 38.9657 25.5762 39.0664 25.9711C39.0664 26.0698 39.167 26.1685 39.167 26.2672C38.4624 29.426 37.5564 32.5848 36.5498 35.645C36.1471 36.8295 35.6438 38.0141 35.2411 39.1986C34.6372 38.1128 34.0332 37.0269 33.5299 35.8424C32.1206 32.3874 30.9126 28.9325 29.2013 25.6749C29.4026 24.1942 25.9801 24.2929 25.2754 25.6749C24.4701 27.353 24.5708 29.0312 24.8728 30.9067C25.1747 32.9797 25.2754 34.954 25.2754 37.0269C25.2754 40.9755 25.6781 44.924 25.6781 48.8725C25.2754 49.2674 25.1747 49.7609 25.5774 50.2545C25.7787 50.4519 25.9801 50.6494 26.1814 50.8468C27.0874 51.5378 29.7046 50.9455 29.7046 49.5635C29.7046 45.4176 29.4026 41.3703 29.302 37.2244C29.302 36.8295 29.302 36.4347 29.302 36.0398C29.4026 36.1385 29.4026 36.3359 29.5033 36.4347C30.1073 38.0141 30.8119 39.5935 31.7179 41.0742C32.6239 42.5549 33.0265 44.1343 33.5299 45.7137C33.3285 45.9111 33.2279 46.2073 33.3285 46.4047C33.3285 46.6021 33.4292 46.7008 33.6305 46.7995C34.2345 47.3918 35.5431 47.0957 36.1471 46.7995C36.4491 46.7008 36.7511 46.5034 36.9524 46.4047C37.2544 46.2073 37.8584 45.7137 37.6571 45.2201C37.6571 45.1214 37.5564 45.0227 37.5564 44.924C38.0597 43.6407 38.2611 42.3575 38.5631 40.9755C38.8651 39.5935 39.3684 38.2115 39.8717 36.8295C39.9724 37.4218 39.9724 38.1128 40.073 38.7051C40.2744 41.2716 40.073 43.7394 40.073 46.306C40.073 47.1944 40.1737 47.8854 40.2744 48.7738C40.375 49.07 40.677 50.5507 40.5763 50.6494C39.9724 51.2416 40.1737 51.9326 40.979 52.0313C41.885 52.2288 43.0929 51.9326 43.7976 51.3404C45.0056 50.2545 44.4016 48.4777 44.2003 47.0957C43.5963 44.7266 44.0996 42.0613 44.0996 39.6922Z" fill="white"></path>
    <path d="M52.5556 40.384C52.4549 38.4097 51.7503 36.5342 51.7503 34.5599C51.7503 32.2895 51.9516 30.0191 51.5489 27.7487C51.4483 27.0577 47.4217 27.8474 47.5224 28.8345C47.8244 30.9075 47.7237 33.0792 47.7237 35.1522C47.7237 37.2252 48.227 39.002 48.4283 41.075C48.7303 43.148 48.3277 45.2209 48.529 47.2939C48.6297 48.281 49.3343 50.0579 48.6297 50.8476C48.227 51.3412 50.1396 51.1437 50.2403 51.1437C51.0456 51.045 52.0522 50.7489 52.5556 50.1566C53.2602 49.3669 52.7569 47.7875 52.6562 46.8003C52.4549 44.5299 52.6562 42.457 52.5556 40.384Z" fill="white"></path>
    <path d="M69.1649 37.0275C67.051 34.2636 63.2258 36.2378 60.5078 35.4481C59.0985 35.0533 59.0985 33.1777 59.0985 32.0919C59.0985 30.7099 58.9979 29.3279 58.7965 27.9459C58.6959 26.8601 58.7965 25.8729 59.6019 25.0832C59.7025 24.9845 60.5078 24.7871 60.4072 24.7871C60.8098 24.6884 61.1118 24.6884 61.5145 24.6884C63.1251 24.5897 66.2457 24.8858 65.6417 27.1562C65.3397 28.1433 69.2656 27.5511 69.5676 26.5639C70.7756 22.0231 62.1185 22.9115 59.7025 23.5038C57.4879 24.0961 54.9713 25.3794 54.8706 27.8472C54.77 29.0318 55.1726 30.2163 55.1726 31.4009C55.2733 32.7829 54.9713 34.1649 55.4746 35.5468C56.5819 38.5082 61.1118 37.1263 63.3264 37.3237C67.2523 37.6198 66.0444 42.7529 66.145 45.2207C66.145 46.504 67.353 48.6757 66.3464 49.6628C65.7424 50.3538 64.3331 50.3538 63.5278 50.4525C62.7224 50.5512 61.3131 50.7487 60.7092 49.959C59.7025 48.577 60.8098 46.2079 60.6085 44.5297C60.4072 43.5426 56.3806 44.431 56.5819 45.5169C56.8839 48.1821 55.1726 51.6371 58.9979 52.1307C61.5145 52.4268 64.2324 51.9332 66.6483 51.2422C67.8563 50.8474 68.9636 50.2551 69.9703 49.4654C70.9769 48.577 70.6749 47.0963 70.3729 45.9117C69.6683 42.9503 71.0776 39.5941 69.1649 37.0275Z" fill="white"></path>
    <path d="M86.7812 36.83C86.6805 33.0789 86.0765 29.3278 86.0765 25.5767C86.0765 23.6024 82.05 24.2934 82.05 25.8729C82.05 29.4265 82.5533 32.9802 82.7546 36.6326C82.7546 36.7313 82.7546 36.7313 82.7546 36.83C80.7413 36.83 78.8287 37.0274 76.8154 37.0274C77.0168 32.3879 76.2114 27.8471 76.4128 23.2076C76.4128 22.6153 72.4869 23.1089 72.3862 24.2934C72.1849 28.7355 72.9902 33.1776 72.8895 37.6197C72.7889 39.7914 72.6882 41.8644 72.5875 44.0361C72.5875 45.1219 72.7889 46.2078 72.8895 47.2936C72.9902 48.2808 73.3928 49.6627 73.0909 50.5512C72.8895 51.3409 76.7148 50.8473 77.0168 49.8602C77.5201 48.0833 76.8154 45.8129 76.6141 44.0361C76.4128 42.358 76.6141 40.5811 76.7148 38.8043C78.728 38.7056 80.842 38.5081 82.8553 38.8043C82.9559 40.1863 83.0566 41.5683 83.1573 42.9502C83.2579 44.1348 83.3586 45.2206 83.3586 46.4052C83.3586 47.3923 83.4593 48.873 83.1573 49.8602C82.352 51.9331 86.3785 51.7357 86.9825 50.255C87.6871 48.3795 87.4858 46.1091 87.3852 44.1348C87.1838 41.7657 86.7812 39.2979 86.7812 36.83Z" fill="white"></path>
    <path d="M103.894 41.3711C102.988 38.6071 101.478 36.238 100.27 33.5728C101.277 31.5985 102.283 29.7229 103.29 27.7487C104.095 25.9718 104.8 23.8989 106.411 22.7143C107.015 22.2207 107.015 21.8259 106.109 21.7272C105.203 21.6285 103.995 21.9246 103.29 22.4182C101.78 23.6027 100.874 24.9847 100.069 26.6628C99.0622 28.7358 98.1562 30.7101 97.0489 32.6843C96.9482 32.783 96.8475 32.9805 96.8475 33.0792C96.3442 33.3753 96.0422 33.8689 96.2436 34.3625C95.4382 35.9419 94.6329 37.4226 93.727 39.002C93.425 33.474 92.7203 27.9461 92.519 22.4182C92.519 21.1349 88.4924 21.9246 88.4924 23.504C88.6938 30.3152 89.7004 37.1264 89.8011 44.0364C89.8011 44.0364 89.8011 44.0364 89.8011 44.1351C89.4991 44.4312 89.5997 44.6286 89.9017 44.7273C89.9017 46.5042 89.8011 48.1823 89.7004 49.9591C89.1971 50.7489 90.2037 51.045 90.8077 51.045H90.9084C91.613 51.045 93.5256 50.6501 93.6263 49.663C93.8276 47.59 93.9283 45.5171 93.8276 43.4441C95.4382 41.7659 96.7469 39.7917 97.9549 37.8174C98.7602 39.2981 99.4648 40.7788 99.9681 42.3582C100.874 45.1222 102.283 47.59 103.189 50.354C103.693 52.1308 107.719 51.045 107.216 49.2682C106.31 46.6029 104.901 44.0364 103.894 41.3711Z" fill="white"></path>
    <path d="M127.852 36.7316C127.651 35.9419 126.443 35.8431 125.537 35.9419C125.537 35.6457 125.537 35.2509 125.537 34.9547C125.436 32.2895 125.336 29.6242 125.134 26.959C124.933 24.4911 123.524 23.6027 121.108 23.7014C118.692 23.8001 115.773 24.195 113.457 25.0834C110.84 26.0705 109.33 28.0448 108.827 30.7101C108.223 33.6715 109.028 36.929 109.229 39.8904C109.431 43.3453 109.33 46.899 109.33 50.354C109.33 50.9463 113.357 50.354 113.357 49.2681C113.357 46.5042 113.357 43.7402 113.357 40.9762C113.357 40.1865 113.256 39.3968 113.256 38.5084C114.665 37.9161 116.981 38.5084 118.39 38.6071C119.497 38.7058 120.605 38.4097 121.712 38.311C121.712 40.5814 121.812 42.9505 121.913 45.2209C121.913 46.4055 122.416 48.7746 121.51 49.7617C121.108 50.2553 123.02 50.0578 123.121 50.0578C123.926 49.9591 124.933 49.663 125.436 48.972C126.443 47.8862 125.94 45.2209 125.839 43.8389C125.738 41.9634 125.738 39.9891 125.738 38.1135C126.745 38.311 128.054 37.5213 127.852 36.7316ZM112.954 36.5341C112.853 35.2509 112.753 34.0663 112.652 32.783C112.451 30.4139 112.753 27.2551 114.967 25.7744C115.571 25.3795 116.679 25.4783 117.383 25.3795C118.39 25.1821 119.397 24.9847 120.303 25.577C121.51 26.3667 121.208 29.2294 121.208 30.4139C121.208 32.3882 121.41 34.3624 121.51 36.4354C120.906 36.5341 120.403 36.5341 119.799 36.5341C117.484 36.4354 115.169 36.1393 112.954 36.5341Z" fill="white"></path>
    <path d="M49.1328 24.9843C49.6361 24.8856 50.2401 24.7869 50.6427 24.4908C50.7434 24.3921 50.8441 24.3921 50.9447 24.2933C51.4481 23.9972 51.9514 23.5036 51.6494 22.9114C51.1461 21.8255 51.2467 20.641 51.2467 19.5551C51.2467 18.568 50.2401 18.2718 49.4348 18.3705C48.7301 18.4693 47.2202 18.9628 47.2202 19.8512C47.2202 20.8384 47.1195 21.8255 47.3208 22.8126C47.3208 22.9114 47.2202 23.0101 47.2202 23.2075C47.1195 23.4049 47.2202 23.6023 47.3208 23.7998V23.8985C47.3208 23.9972 47.3208 24.0959 47.3208 24.1946C47.4215 24.3921 47.5222 24.5895 47.7235 24.6882C48.1261 24.9843 48.6295 24.9843 49.1328 24.9843Z" fill="white"></path>
  </symbol>
  <symbol xmlns="http://www.w3.org/2000/svg" viewBox="0 0 21 20" id="menu-opened">
    <path d="M21 1.36585L19.5659 0L10.5512 8.58537L1.43415 0L0 1.36585L9.01463 10.0488L0 18.6341L1.43415 20L10.5512 11.4146L19.5659 20L21 18.6341L11.9854 10.0488L21 1.36585Z" fill="black"></path>
  </symbol>
  <symbol xmlns="http://www.w3.org/2000/svg" viewBox="0 0 20 14" id="menu-closed">
    <path d="M20 0H0V2H20V0Z" fill="#231F20"></path>
    <path d="M20 6H0V8H20V6Z" fill="#231F20"></path>
    <path d="M20 12H0V14H20V12Z" fill="#231F20"></path>
  </symbol>
  <symbol xmlns="http://www.w3.org/2000/svg" viewBox="0 0 18 18" id="icon-search">
    <path d="M17.6932 16.0568L14.2159 12.5795C15.2386 11.25 15.75 9.61364 15.75 7.875C15.75 3.47727 12.2727 0 7.875 0C3.47727 0 0 3.47727 0 7.875C0 12.2727 3.47727 15.75 7.875 15.75C9.61364 15.75 11.25 15.1364 12.5795 14.2159L16.0568 17.6932C16.2614 17.8977 16.4659 18 16.875 18C17.4886 18 18 17.4886 18 16.875C18 16.6705 17.8977 16.3636 17.6932 16.0568ZM2.25 7.875C2.25 4.80682 4.80682 2.25 7.875 2.25C10.9432 2.25 13.5 4.80682 13.5 7.875C13.5 10.9432 10.9432 13.5 7.875 13.5C4.80682 13.5 2.25 10.9432 2.25 7.875Z"></path>
  </symbol>
  <symbol xmlns="http://www.w3.org/2000/svg" viewBox="0 0 20 19" id="basket">
    <path d="M19.2271 7.23811H15.8454L12.5604 0.402108C12.3672 -9.09136e-06 11.9807 -0.100526 11.5942 0.100532C11.2077 0.301591 11.1111 0.703707 11.3043 1.10582L14.2995 7.23811H5.50723L8.50241 1.10582C8.69565 0.703707 8.50242 0.301591 8.21257 0.100532C7.82609 -0.100526 7.43962 0.10052 7.24638 0.402108L3.96133 7.23811H0.772936C0.386462 7.23811 0 7.53968 0 8.04233C0 8.44445 0.289844 8.84655 0.772936 8.84655H0.966184L1.83574 11.8624C1.64251 11.963 1.54587 12.164 1.54587 12.4656C1.54587 12.8677 1.83574 13.1693 2.22221 13.1693L3.86474 19H16.1353L17.7778 13.1693C18.1643 13.1693 18.4541 12.8677 18.4541 12.4656C18.4541 12.2645 18.3575 11.963 18.1643 11.8624L19.0338 8.84655H19.2271C19.6135 8.84655 20 8.54498 20 8.04233C20 7.53968 19.6135 7.23811 19.2271 7.23811ZM14.8792 17.3915H4.83092L3.67149 13.0688H16.1353L14.8792 17.3915ZM16.4251 11.5609H3.1884L2.41546 8.74605H17.1981L16.4251 11.5609Z"></path>
  </symbol>
   <symbol xmlns="http://www.w3.org/2000/svg" viewBox="0 0 50 26" id="left-arrow">
    <path d="M50 11H7.7L15.8 2.8L13 0L0 13L13 26L15.8 23.2L7.7 15H50V11Z" fill="black"></path>
  </symbol>
  <symbol xmlns="http://www.w3.org/2000/svg" viewBox="0 0 50 26" id="right-arrow">
    <path d="M0 11H42.3L34.2 2.8L37 0L50 13L37 26L34.2 23.2L42.3 15H0V11Z" fill="black"></path>
  </symbol>
  <symbol xmlns="http://www.w3.org/2000/svg" viewBox="0 0 102 34" id="logo-footer">
    <path d="M19.2204 21.3813C19.1204 18.6962 18.7204 16.1105 18.7204 13.4255C18.7204 11.2376 19.1204 9.04976 18.3204 6.96135C18.3204 6.76246 18.4204 6.46411 18.4204 6.26522C18.6204 5.27074 15.1204 5.76798 14.6204 6.76246C14.3204 7.0608 14.1204 7.35914 14.2204 7.75694C14.2204 7.85638 14.3204 7.95583 14.3204 8.05528C13.6204 11.2376 12.7204 14.3205 11.7204 17.4034C11.3204 18.5967 10.8204 19.6907 10.4204 20.884C9.82041 19.7901 9.22041 18.6962 8.82041 17.5028C7.42041 14.1216 6.22041 10.6409 4.52041 7.35914C4.72041 5.86743 1.32041 5.96688 0.620408 7.35914C-0.179592 9.04976 -0.0795918 10.7404 0.220408 12.5304C0.520408 14.5194 0.620408 16.5083 0.620408 18.5967C0.620408 22.5746 1.02041 26.4531 1.02041 30.431C0.620408 30.8288 0.520408 31.326 0.920408 31.8233C1.12041 32.0222 1.32041 32.2211 1.52041 32.3205C2.52041 33.0167 5.12041 32.42 5.12041 31.0277C5.12041 26.9503 4.82041 22.873 4.72041 18.6962C4.72041 18.2984 4.72041 17.9006 4.72041 17.5028C4.82041 17.6023 4.82041 17.8012 4.92041 17.9006C5.52041 19.4918 6.22041 21.0829 7.12041 22.5746C8.02041 24.0664 8.42041 25.6575 8.92041 27.2487C8.72041 27.4476 8.62041 27.7459 8.72041 27.9448C8.72041 28.1437 8.82041 28.2432 9.02041 28.3426C9.62041 28.8399 10.8204 28.641 11.5204 28.3426C11.8204 28.2432 12.1204 28.0443 12.3204 27.9448C12.6204 27.7459 13.2204 27.2487 13.0204 26.7514C13.0204 26.652 12.9204 26.5526 12.9204 26.4531C13.4204 25.1603 13.6204 23.8675 13.9204 22.5746C14.2204 21.1824 14.7204 19.7901 15.2204 18.4973C15.3204 19.094 15.3204 19.6907 15.4204 20.3868C15.6204 22.9724 15.4204 25.4586 15.4204 27.9448C15.4204 28.7404 15.5204 29.536 15.6204 30.431C15.7204 30.7294 16.0204 32.2211 15.9204 32.3205C15.1204 32.8178 15.3204 33.4144 16.1204 33.6133C17.0204 33.8122 18.2204 33.5139 18.9204 32.9172C20.1204 31.8233 19.5204 30.1327 19.3204 28.7404C18.8204 26.3537 19.3204 23.768 19.2204 21.3813Z"></path>
    <path d="M27.6201 22.0776C27.5201 20.0887 26.8201 18.1992 26.8201 16.2102C26.8201 13.9229 27.0201 11.6356 26.6201 9.34833C26.5201 8.65219 22.5201 9.44778 22.7201 10.3428C23.0201 12.4312 22.9201 14.5196 22.9201 16.7075C22.9201 18.6964 23.4201 20.5859 23.6201 22.5749C23.9201 24.6633 23.5201 26.7517 23.7201 28.7406C23.8201 29.7351 24.5201 31.4257 23.8201 32.3208C23.4201 32.818 25.3201 32.6191 25.4201 32.6191C26.2201 32.5196 27.2201 32.2213 27.7201 31.6246C28.4201 30.829 27.9201 29.2379 27.8201 28.2434C27.5201 26.2544 27.7201 24.0666 27.6201 22.0776Z"></path>
    <path d="M43.9205 18.7956C41.8205 16.0111 38.0205 18.0001 35.3205 17.3039C33.9205 16.9061 33.9205 15.0166 33.9205 13.9227C33.9205 12.5304 33.8205 11.2376 33.6205 9.84534C33.5205 8.75142 33.6205 7.75694 34.3205 6.96136C34.4205 6.86191 35.2205 6.66302 35.1205 6.66302C35.5205 6.56357 35.8205 6.56357 36.2205 6.56357C37.7205 6.46412 40.8205 6.76247 40.2205 9.04976C39.9205 10.0442 43.8205 9.44755 44.1205 8.45308C45.3205 3.87848 36.8205 4.77351 34.4205 5.3702C32.2205 5.96688 29.8205 7.16026 29.6205 9.7459C29.5205 10.9393 29.9205 12.1326 29.9205 13.326C30.0205 14.7183 29.7205 16.1106 30.2205 17.4034C31.3205 20.3868 35.7205 18.9945 38.0205 19.094C41.8205 19.3923 40.7205 24.5636 40.7205 26.9504C40.7205 28.2432 41.9205 30.3316 40.9205 31.4255C40.3205 32.1216 38.9205 32.1216 38.1205 32.2211C37.3205 32.3205 35.9205 32.5194 35.4205 31.7238C34.4205 30.3316 35.5205 27.9448 35.3205 26.3537C35.2205 25.4586 31.2205 26.2542 31.4205 27.3481C31.7205 29.9338 30.0205 33.4145 33.8205 33.9117C36.2205 34.21 39.0205 33.7128 41.3205 33.0167C42.5205 32.6189 43.6205 32.1216 44.5205 31.2266C45.5205 30.3316 45.2205 28.9393 44.9205 27.7459C44.4205 24.6631 45.8205 21.2818 43.9205 18.7956Z"></path>
    <path d="M61.3201 18.5966C61.2201 14.8176 60.6201 11.1381 60.6201 7.35905C60.6201 5.37009 56.6201 6.06623 56.6201 7.65739C56.6201 11.2375 57.1201 14.8176 57.3201 18.3977C57.3201 18.4972 57.3201 18.4972 57.3201 18.5966C55.4201 18.5966 53.4201 18.7955 51.4201 18.7955C51.6201 14.2209 50.8201 9.64634 51.0201 4.9723C51.0201 4.37561 47.1201 4.87285 47.1201 5.96678C46.9201 10.4419 47.7201 14.8176 47.6201 19.2928C47.5201 21.3812 47.4201 23.569 47.3201 25.6574C47.3201 26.7514 47.5201 27.8453 47.6201 28.9392C47.7201 29.9337 48.1201 31.2265 47.8201 32.221C47.6201 33.0166 51.4201 32.5193 51.7201 31.5248C52.2201 29.7348 51.5201 27.5469 51.3201 25.7569C51.1201 24.0663 51.3201 22.2762 51.4201 20.5856C53.4201 20.4861 55.5201 20.2873 57.5201 20.5856C57.6201 21.9779 57.7201 23.3701 57.8201 24.663C57.9201 25.8563 58.0201 26.9502 58.0201 28.1436C58.0201 29.1381 58.1201 30.6298 57.8201 31.6243C57.0201 33.7127 60.9201 33.5138 61.5201 32.0221C62.2201 30.1326 62.0201 27.8453 61.9201 25.8563C61.7201 23.3701 61.3201 20.9834 61.3201 18.5966Z"></path>
    <path d="M78.22 22.9729C77.32 20.1884 75.82 17.8016 74.62 15.216C75.62 13.3265 76.62 11.3375 77.52 9.34855C78.32 7.55849 78.92 5.56954 80.62 4.27672C81.22 3.87892 81.22 3.38169 80.32 3.28224C79.42 3.18279 78.22 3.48113 77.52 3.97837C76.12 5.27119 75.12 6.66346 74.42 8.35407C73.52 10.4425 72.52 12.4314 71.52 14.4204C71.42 14.5198 71.42 14.7187 71.32 14.8182C70.82 15.1165 70.52 15.6138 70.72 16.111C69.92 17.7022 69.12 19.1939 68.22 20.6856C67.92 15.216 67.22 9.64689 67.02 4.17727C67.02 2.88445 63.02 3.68003 63.12 5.17174C63.32 12.0336 64.32 18.7961 64.42 25.658C64.42 25.658 64.42 25.658 64.42 25.7574C64.12 26.0558 64.22 26.2547 64.52 26.3541C64.52 28.1442 64.42 29.8348 64.32 31.6248C63.82 32.321 64.82 32.7188 65.42 32.7188H65.52C66.22 32.7188 68.12 32.4204 68.22 31.3265C68.42 29.2381 68.52 27.1497 68.42 25.0613C70.02 23.3707 71.32 21.4812 72.52 19.4922C73.32 20.9839 74.02 22.4756 74.52 24.0668C75.42 26.7519 76.82 29.3375 77.62 32.0226C78.12 33.8127 82.12 32.7188 81.52 31.0282C80.52 28.2436 79.12 25.7574 78.22 22.9729Z"></path>
    <path d="M101.721 18.3983C101.521 17.6027 100.321 17.6027 99.4207 17.6027C99.4207 17.3043 99.4207 16.9066 99.4207 16.6082C99.3207 13.9231 99.2207 11.238 99.0207 8.6524C98.8207 6.1662 97.4207 5.37062 95.0207 5.47007C92.6207 5.56952 89.8207 5.96731 87.5207 6.86234C84.9207 7.85682 83.4207 9.74632 82.9207 12.5309C82.4207 15.5143 83.1207 18.6966 83.3207 21.68C83.5207 25.1607 83.4207 28.6414 83.4207 32.1221C83.4207 32.7187 87.3207 32.1221 87.3207 31.1276C87.3207 28.343 87.3207 25.5585 87.3207 22.8734C87.3207 22.0778 87.2207 21.2823 87.2207 20.4867C88.6207 19.89 90.9207 20.4867 92.3207 20.5861C93.4207 20.6856 94.5207 20.3872 95.5207 20.2878C95.5207 22.5751 95.6207 24.8624 95.7207 27.1497C95.7207 28.343 96.2207 30.6303 95.3207 31.6248C94.9207 32.1221 96.8207 31.9232 96.9207 31.9232C97.7207 31.8237 98.7207 31.5254 99.2207 30.9287C100.121 29.8348 99.7207 27.1497 99.6207 25.8569C99.5207 23.9673 99.5207 22.0778 99.5207 20.1883C100.621 19.9894 101.921 19.2933 101.721 18.3983ZM87.1207 18.2988C87.0207 17.1055 86.9207 15.8126 86.8207 14.6193C86.6207 12.332 86.9207 9.05019 89.1207 7.65792C89.7207 7.26013 90.8207 7.35958 91.5207 7.26013C92.5207 7.06123 93.5207 6.86234 94.3207 7.45902C95.5207 8.25461 95.2207 11.1386 95.2207 12.332C95.2207 14.3209 95.4207 16.3099 95.5207 18.2988C94.9207 18.3983 94.4207 18.3983 93.8207 18.3983C91.5207 18.1994 89.2207 17.8016 87.1207 18.2988Z"></path>
    <path d="M24.2204 6.663C24.7204 6.56355 25.2204 6.4641 25.7204 6.16576C25.8204 6.06631 25.9204 5.96686 25.9204 5.96686C26.4204 5.66852 26.9204 5.17128 26.6204 4.57459C26.1204 3.48067 26.2204 2.38675 26.2204 1.19337C26.2204 0.198895 25.2204 0 24.4204 0C23.7204 0.0994477 22.2204 0.596686 22.2204 1.49172C22.2204 2.48619 22.1204 3.48067 22.3204 4.47515C22.3204 4.57459 22.2204 4.67404 22.2204 4.87294C22.1204 5.07183 22.2204 5.27073 22.3204 5.46962V5.56907C22.3204 5.66852 22.3204 5.76797 22.3204 5.86742C22.4204 6.06631 22.5204 6.26521 22.7204 6.36465C23.3204 6.663 23.8204 6.663 24.2204 6.663Z"></path>
  </symbol>
  <symbol xmlns="http://www.w3.org/2000/svg" viewBox="0 0 27 18" id="vk">
    <path d="M0 2.83876C0 1.98373 0.515103 1.52268 1.54531 1.45562L5.51515 1.48077C5.78158 1.48077 5.95921 1.60651 6.04802 1.85799C6.45655 3.11538 6.91392 4.20094 7.42014 5.11465C7.92637 6.02835 8.58801 7.08038 9.40507 8.27071C9.47611 8.4216 9.59157 8.49704 9.75143 8.49704C9.87576 8.49704 9.97345 8.43836 10.0445 8.32101L10.1244 8.04438L10.1511 3.69379C10.1511 3.39201 10.0756 3.19083 9.92461 3.09024C9.77363 2.98965 9.49388 2.9142 9.08535 2.86391C8.76563 2.81361 8.60577 2.62919 8.60577 2.31065C8.60577 2.24359 8.61465 2.19329 8.63241 2.15976C9.00542 1.07002 10.0711 0.525148 11.8296 0.525148L13.3216 0.5C13.9966 0.5 14.5561 0.65927 15.0001 0.977811C15.4442 1.29635 15.6662 1.79931 15.6662 2.48669V8.19527C15.7906 8.27909 15.906 8.32101 16.0126 8.32101C16.279 8.32101 16.5099 8.17012 16.7053 7.86834C18.6592 5.28649 19.716 3.55966 19.8759 2.68787C19.8759 2.6711 19.8936 2.62919 19.9291 2.56213C20.0535 2.31065 20.2577 2.0927 20.5419 1.90828C20.8261 1.72387 21.0748 1.59813 21.288 1.53107C21.359 1.49753 21.4389 1.48077 21.5277 1.48077H25.6574L25.9239 1.50592C26.2791 1.50592 26.5544 1.66519 26.7498 1.98373C26.8209 2.08432 26.8697 2.19329 26.8964 2.31065C26.923 2.42801 26.9408 2.54536 26.9496 2.66272C26.9585 2.78008 26.963 2.84714 26.963 2.86391V3.03994C26.8386 3.72732 26.5233 4.4608 26.0171 5.24038C25.5109 6.01997 24.867 6.86243 24.0855 7.76775C23.304 8.67308 22.8155 9.26825 22.6201 9.55326C22.4603 9.75444 22.3803 9.93886 22.3803 10.1065C22.3803 10.2406 22.4514 10.3915 22.5935 10.5592L26.4834 15.1864C26.6965 15.4546 26.8031 15.748 26.8031 16.0666C26.8031 16.4522 26.6432 16.7707 26.3235 17.0222C26.0038 17.2737 25.6219 17.4162 25.1779 17.4497L24.7249 17.4749H20.6752C20.6574 17.4749 20.6219 17.479 20.5686 17.4874C20.5153 17.4958 20.4798 17.5 20.462 17.5C20.0712 17.5 19.7071 17.3407 19.3696 17.0222C19.2453 16.8881 18.4105 15.8989 16.8652 14.0547C16.7764 13.9374 16.652 13.8284 16.4922 13.7278C16.4211 13.9961 16.3279 14.3817 16.2124 14.8846C16.097 15.3876 16.0126 15.748 15.9593 15.966L15.8794 16.3935C15.7018 16.9803 15.3287 17.3323 14.7604 17.4497L14.3874 17.4749H11.7763C10.3021 17.4749 8.83224 16.8378 7.36686 15.5636C5.90148 14.2894 4.58264 12.6423 3.41034 10.622C2.23803 8.60182 1.14566 6.25049 0.133216 3.56805C0.0444054 3.3501 0 3.107 0 2.83876ZM16.0126 9.35207C15.6396 9.35207 15.3021 9.25567 15.0001 9.06287C14.6982 8.87007 14.5472 8.60602 14.5472 8.27071V2.48669C14.5472 2.15138 14.4584 1.91248 14.2808 1.76997C14.1032 1.62747 13.7923 1.55621 13.3483 1.55621L11.8296 1.60651C11.0658 1.60651 10.4886 1.73225 10.0978 1.98373C10.8793 2.3358 11.2701 2.90582 11.2701 3.69379V8.11982C11.2346 8.53895 11.0569 8.88683 10.7372 9.16346C10.4175 9.44009 10.0623 9.5784 9.6715 9.5784C9.13863 9.5784 8.7301 9.33531 8.44591 8.84911C7.06046 6.87081 6.03025 4.9931 5.35529 3.21598L5.1155 2.56213L1.57195 2.53698C1.34104 2.53698 1.21227 2.54956 1.18562 2.5747C1.15898 2.59985 1.14566 2.6711 1.14566 2.78846C1.14566 2.93935 1.16342 3.09862 1.19895 3.26627L1.75845 4.67456C3.25048 8.31262 4.87127 11.1795 6.62085 13.2751C8.37042 15.3708 10.0889 16.4186 11.7763 16.4186H14.4406C14.5472 16.4186 14.6271 16.3893 14.6804 16.3306C14.7337 16.2719 14.7781 16.1588 14.8136 15.9911L14.8669 15.7396L15.3732 13.5266C15.5152 13.2249 15.6396 13.0237 15.7462 12.9231C15.9415 12.7387 16.1725 12.6465 16.4389 12.6465C16.8652 12.6465 17.3003 12.8895 17.7444 13.3757L20.0091 16.0917C20.1512 16.3097 20.3022 16.4186 20.462 16.4186H24.8581C25.391 16.4186 25.6574 16.2929 25.6574 16.0414C25.6574 15.9576 25.6308 15.8738 25.5775 15.7899L21.7142 11.2382C21.4123 10.8861 21.2613 10.5089 21.2613 10.1065C21.2613 9.70414 21.4034 9.31854 21.6876 8.9497C21.9185 8.6144 22.367 8.05695 23.0331 7.27737C23.6992 6.49778 24.2809 5.76849 24.7782 5.0895C25.2756 4.4105 25.6042 3.79438 25.764 3.24112L25.8439 2.9142C25.8262 2.88067 25.8173 2.82618 25.8173 2.75074C25.8173 2.6753 25.8084 2.61243 25.7907 2.56213H21.6077C21.3412 2.66272 21.1281 2.81361 20.9682 3.01479L20.8084 3.4926C20.3643 4.64941 19.2009 6.43491 17.3181 8.84911C16.9451 9.18442 16.5099 9.35207 16.0126 9.35207Z"></path>
  </symbol>
  <symbol xmlns="http://www.w3.org/2000/svg" viewBox="0 0 24 20" id="youtube" fill="#63D1BB">
    <path d="M15.8509 9.29275L10.6145 5.80184C10.5159 5.73691 10.4016 5.69985 10.2837 5.69459C10.1657 5.68934 10.0486 5.71608 9.94459 5.77198C9.84061 5.82789 9.75368 5.91087 9.69302 6.01215C9.63236 6.11343 9.60022 6.22924 9.6 6.34729V13.3291C9.60013 13.4481 9.6327 13.5648 9.69421 13.6667C9.75572 13.7686 9.84384 13.8518 9.94909 13.9073C10.0524 13.9631 10.1691 13.9895 10.2864 13.9837C10.4037 13.978 10.5172 13.9402 10.6145 13.8746L15.8509 10.3837C15.9409 10.3239 16.0148 10.2429 16.0658 10.1477C16.1169 10.0526 16.1436 9.94621 16.1436 9.8382C16.1436 9.73019 16.1169 9.62385 16.0658 9.52868C16.0148 9.43351 15.9409 9.35245 15.8509 9.29275ZM10.9091 12.1073V7.56911L14.3127 9.8382L10.9091 12.1073ZM23.3891 3.54366C23.2942 3.17547 23.1131 2.83511 22.8609 2.55061C22.6086 2.26611 22.2924 2.04561 21.9382 1.90729C18.2182 0.478201 12.2509 0.500019 12 0.500019C11.7491 0.500019 5.78182 0.478201 2.06182 1.90729C1.70764 2.04561 1.3914 2.26611 1.13914 2.55061C0.886889 2.83511 0.705838 3.17547 0.610909 3.54366C0.327273 4.61275 0 6.57638 0 9.8382C0 13.1 0.327273 15.0637 0.610909 16.1327C0.705838 16.5009 0.886889 16.8413 1.13914 17.1258C1.3914 17.4103 1.70764 17.6308 2.06182 17.7691C5.78182 19.1982 11.7491 19.1764 12 19.1764H12.0764C12.8291 19.1764 18.3927 19.1327 21.9382 17.7691C22.2924 17.6308 22.6086 17.4103 22.8609 17.1258C23.1131 16.8413 23.2942 16.5009 23.3891 16.1327C23.6727 15.0637 24 13.1 24 9.8382C24 6.57638 23.6727 4.61275 23.3891 3.54366ZM22.1236 15.8055C22.0807 15.972 21.999 16.1259 21.8853 16.2548C21.7715 16.3838 21.6289 16.484 21.4691 16.5473C17.9782 17.8891 12.0655 17.8673 12 17.8673C11.9345 17.8673 6.02182 17.8891 2.53091 16.5473C2.37107 16.484 2.22846 16.3838 2.11471 16.2548C2.00096 16.1259 1.91929 15.972 1.87636 15.8055C1.61455 14.8018 1.30909 12.9582 1.30909 9.8382C1.30909 6.7182 1.61455 4.87457 1.87636 3.87093C1.91929 3.70445 2.00096 3.55047 2.11471 3.42156C2.22846 3.29264 2.37107 3.19243 2.53091 3.12911C6.02182 1.78729 11.9345 1.80911 12 1.80911C12.0655 1.80911 17.9782 1.78729 21.4691 3.12911C21.6289 3.19243 21.7715 3.29264 21.8853 3.42156C21.999 3.55047 22.0807 3.70445 22.1236 3.87093C22.3855 4.87457 22.6909 6.7182 22.6909 9.8382C22.6909 12.9582 22.3855 14.8018 22.1236 15.8055Z"></path>
  </symbol>
  <symbol xmlns="http://www.w3.org/2000/svg" viewBox="0 0 20 18" id="telegram">
    <path fill-rule="evenodd" clip-rule="evenodd" d="M19.4608 0.652905C19.6393 0.802216 19.7255 1.0349 19.6872 1.26448L17.0611 17.0214C17.0244 17.2411 16.8789 17.4273 16.6745 17.5159C16.47 17.6045 16.2346 17.5833 16.0493 17.4597L8.17082 12.2074C8.01771 12.1054 7.91447 11.9437 7.88624 11.7619C7.858 11.58 7.90738 11.3947 8.02233 11.251L10.633 7.98773L6.27303 10.8944C6.077 11.025 5.82597 11.0407 5.61524 10.9353L0.362931 8.30915C0.127693 8.19153 -0.0146529 7.94488 0.00119976 7.68235C0.0170525 7.41983 0.188044 7.1921 0.435726 7.10364L18.8188 0.538258C19.038 0.459976 19.2822 0.503595 19.4608 0.652905ZM2.32626 7.82275L5.86168 9.59046L13.4231 4.5495C13.6925 4.36994 14.0525 4.41349 14.2712 4.6521C14.49 4.8907 14.5022 5.25314 14.3 5.50591L9.49502 11.5121L15.9328 15.8039L18.2083 2.15058L2.32626 7.82275Z"></path>
  </symbol>
  <symbol xmlns="http://www.w3.org/2000/svg" viewBox="0 0 27 35" id="htmlacademy-footer">
    <path d="M13.6 0H13.5L0 1.4V26.1L13.5 34.1L26.9 26.1V1.4L13.6 0ZM25 12.1L13.5 5.3V5.2H13.4L13.3 5.1V5.2L1.9 12.1V3.1L13.4 1.9L25 3.1V12.1ZM13.4 6.8L24.9 13.5L20.4 16.1L13.3 11.9V13.3L19.2 16.8L18.3 17.3L13.3 14.3V15.7L17.1 18L16.3 18.5L13.3 16.7V18.1L15.2 19.2L13.4 20.3L2 13.6L13.4 6.8ZM1.9 15.1L13.3 21.9V22.9L5.4 18.2V19.6L13.4 24.4V25.5L5.4 20.8V22.2L13.4 27L21.5 22.1V16.9L24.9 14.9V24.9L13.4 31.8L1.9 25V15.1Z"></path>
  </symbol>
  <symbol xmlns="http://www.w3.org/2000/svg" viewBox="0 0 38 38" id="checkbox">
    <rect x="1" y="1" width="36" height="36" stroke-width="2"></rect>
  </symbol>
  <symbol xmlns="http://www.w3.org/2000/svg" viewBox="0 0 38 38" id="checked">
    <rect x="1" y="1" width="36" height="36" stroke-width="2"></rect>
    <path stroke="black" d="M30.963 12.6838L29.9687 11.6923L15.7655 25.7862L8.73497 18.7747L7.74074 19.7662L14.7713 26.7777L15.7655 27.7692L16.8308 26.7777L30.963 12.6838Z"></path>
  </symbol>
</svg>